<svg width="135" height="40" viewBox="0 0 135 40" fill="none" xmlns="http://www.w3.org/2000/svg">
<path d="M130 40H5C2.25 40 0 37.75 0 35V5C0 2.25 2.25 0 5 0H130C132.75 0 135 2.25 135 5V35C135 37.75 132.75 40 130 40Z" fill="black"/>
<path d="M130 0H5C2.25 0 0 2.25 0 5V35C0 37.75 2.25 40 5 40H130C132.75 40 135 37.75 135 35V5C135 2.25 132.75 0 130 0ZM130 0.799999C132.316 0.799999 134.2 2.6844 134.2 5V35C134.2 37.316 132.316 39.2004 130 39.2004H5C2.6844 39.2004 0.8 37.316 0.8 35V5C0.8 2.6844 2.6844 0.799999 5 0.799999H130Z" fill="#A6A6A6"/>
<path d="M47.4184 10.2432C47.4184 11.081 47.1703 11.7482 46.6734 12.2459C46.109 12.8377 45.3734 13.1338 44.4691 13.1338C43.6031 13.1338 42.8668 12.8338 42.2613 12.233C41.6547 11.6326 41.352 10.8881 41.352 9.99979C41.352 9.11109 41.6547 8.36699 42.2613 7.76619C42.8668 7.16579 43.6031 6.86539 44.4691 6.86539C44.8988 6.86539 45.3102 6.94939 45.7008 7.11699C46.0914 7.28499 46.4047 7.50799 46.6391 7.78729L46.1117 8.31499C45.7145 7.84039 45.1676 7.60329 44.4691 7.60329C43.8375 7.60329 43.2914 7.82519 42.8305 8.26929C42.3695 8.71389 42.1391 9.29039 42.1391 9.99979C42.1391 10.7092 42.3695 11.2857 42.8305 11.7303C43.2914 12.1744 43.8375 12.3963 44.4691 12.3963C45.1391 12.3963 45.6977 12.1732 46.1449 11.7264C46.4352 11.4353 46.6031 11.0307 46.648 10.5111H44.4691V9.79039H47.3766C47.4047 9.94709 47.4184 10.0975 47.4184 10.2432Z" fill="white"/>
<path d="M47.4184 10.2433H47.3184C47.3176 11.062 47.0785 11.6979 46.6027 12.1753L46.6016 12.1761L46.6012 12.1769C46.0547 12.7483 45.3523 13.0327 44.4691 13.0339C43.6262 13.0327 42.9207 12.7452 42.3316 12.1624C41.7438 11.5784 41.4531 10.8655 41.452 9.99989C41.4531 9.13389 41.7438 8.42139 42.3316 7.83779C42.9207 7.25459 43.6262 6.96669 44.4691 6.96549C44.8859 6.96549 45.2828 7.04679 45.6613 7.20889C46.0402 7.37219 46.3395 7.58618 46.5625 7.85188L46.6391 7.78739L46.5684 7.71669L46.041 8.24479L46.1117 8.31509L46.1887 8.25109C45.773 7.75299 45.1895 7.50189 44.4691 7.50339C43.8141 7.50259 43.2379 7.73658 42.7613 8.19758C42.2801 8.66008 42.0383 9.26899 42.0391 9.99989C42.0383 10.7308 42.2801 11.3397 42.7613 11.8022C43.2379 12.2632 43.8141 12.4972 44.4691 12.4964C45.1613 12.4976 45.7512 12.2628 46.2156 11.7972C46.5258 11.4862 46.7016 11.0554 46.7477 10.5198L46.757 10.4112H44.5691V9.89049H47.3766V9.79049L47.2781 9.80809C47.3055 9.95969 47.3184 10.1038 47.3184 10.2433H47.4184H47.5184C47.5184 10.0913 47.5043 9.93508 47.475 9.77258L47.4602 9.69049H44.3691V10.5112V10.6112H46.648V10.5112L46.5484 10.5026C46.5043 11.0058 46.3441 11.3847 46.0742 11.6558C45.6445 12.0839 45.1172 12.2952 44.4691 12.2964C43.8609 12.2956 43.3449 12.0862 42.9 11.6585C42.4594 11.2323 42.2402 10.6882 42.2391 9.99989C42.2402 9.31159 42.4594 8.76749 42.9 8.34129C43.3449 7.91359 43.8609 7.70419 44.4691 7.70339C45.1453 7.70499 45.6559 7.92839 46.0352 8.37959L46.1055 8.46319L46.7098 7.85809L46.7746 7.79328L46.7156 7.72329C46.4699 7.43039 46.1426 7.19789 45.7402 7.02529C45.3371 6.85219 44.9117 6.76549 44.4691 6.76549C43.5801 6.76469 42.8129 7.07719 42.1906 7.69559C41.566 8.31279 41.2512 9.08859 41.252 9.99989C41.2512 10.9108 41.566 11.687 42.191 12.3046C42.8129 12.9226 43.5801 13.2347 44.4691 13.2339C45.3949 13.2347 46.1629 12.9272 46.7457 12.3151L46.6734 12.246L46.7441 12.3167C47.2621 11.7991 47.5191 11.0999 47.5184 10.2433H47.4184Z" fill="white"/>
<path d="M52.0277 7.7371H49.2953V9.6395H51.7594V10.3605H49.2953V12.2629H52.0277V13H48.525V7H52.0277V7.7371Z" fill="white"/>
<path d="M52.0277 7.7372V7.6372H49.1953V9.7396H51.6594V10.2603L49.1953 10.2606V12.363H51.9277V12.9001H48.625V7.1001H51.9277V7.7372H52.0277V7.6372V7.7372H52.1277V7.0001V6.9001H48.425V13.1001H52.1277V12.263V12.163H49.3953V10.4606H51.8594V9.6396V9.5396H49.3953V7.8372H52.1277V7.7372H52.0277Z" fill="white"/>
<path d="M55.2789 13H54.5074V7.7371H52.8316V7H56.9547V7.7371H55.2789V13Z" fill="white"/>
<path d="M55.2789 13.0001V12.9001H54.6074V7.6372H52.9316V7.1001H56.8547V7.6372H55.1789V13.0001H55.2789V12.9001V13.0001H55.3789V7.8372H57.0547V7.0001V6.9001H52.7316V7.7372V7.8372H54.4074V13.1001H55.2789H55.3789V13.0001H55.2789Z" fill="white"/>
<path d="M59.9379 13V7H60.7086V13H59.9379Z" fill="white"/>
<path d="M59.9379 13.0001H60.0379V7.1001H60.6086V12.9001H59.9379V13.0001H60.0379H59.9379V13.1001H60.7086H60.8086V6.9001H59.9379H59.8379V13.1001H59.9379V13.0001Z" fill="white"/>
<path d="M64.1285 13H63.357V7.7371H61.6813V7H65.8043V7.7371H64.1285V13Z" fill="white"/>
<path d="M64.1285 13.0001V12.9001H63.457V7.6372H61.7813V7.1001H65.7043V7.6372H64.0285V13.0001H64.1285V12.9001V13.0001H64.2285V7.8372H65.9043V7.0001V6.9001H61.5813V7.7372V7.8372H63.257V13.1001H64.1285H64.2285V13.0001H64.1285Z" fill="white"/>
<path d="M69.7793 11.7221C70.2234 12.1717 70.7668 12.3963 71.4094 12.3963C72.052 12.3963 72.5957 12.1717 73.0391 11.7221C73.4836 11.2725 73.7063 10.6978 73.7063 9.99979C73.7063 9.30179 73.4836 8.72709 73.0391 8.27749C72.5957 7.82789 72.052 7.60329 71.4094 7.60329C70.7668 7.60329 70.2234 7.82789 69.7793 8.27749C69.3359 8.72709 69.1133 9.30179 69.1133 9.99979C69.1133 10.6978 69.3359 11.2725 69.7793 11.7221ZM73.6094 12.2244C73.0195 12.831 72.2859 13.1338 71.4094 13.1338C70.532 13.1338 69.7988 12.831 69.2102 12.2244C68.6199 11.6185 68.3262 10.8768 68.3262 9.99979C68.3262 9.12279 68.6199 8.38099 69.2102 7.77519C69.7988 7.16849 70.532 6.86539 71.4094 6.86539C72.2813 6.86539 73.0129 7.17009 73.6055 7.77909C74.1973 8.38809 74.4934 9.12829 74.4934 9.99979C74.4934 10.8768 74.198 11.6185 73.6094 12.2244Z" fill="white"/>
<path d="M69.7793 11.7222L69.7082 11.7925C70.1688 12.2601 70.7434 12.4976 71.4094 12.4964C72.075 12.4976 72.6504 12.2601 73.1102 11.7925C73.5738 11.3245 73.807 10.719 73.8063 9.99989C73.807 9.28079 73.5738 8.67529 73.1102 8.20729C72.6504 7.73969 72.075 7.50219 71.4094 7.50339C70.7434 7.50219 70.1688 7.73969 69.7082 8.20729C69.2457 8.67529 69.0121 9.28079 69.0133 9.99989C69.0121 10.719 69.2457 11.3245 69.7082 11.7925L69.7793 11.7222L69.8504 11.6519C69.4262 11.2202 69.2141 10.6772 69.2133 9.99989C69.2141 9.32259 69.4262 8.77959 69.8504 8.34789C70.2785 7.91629 70.7898 7.70459 71.4094 7.70339C72.0285 7.70459 72.541 7.91629 72.968 8.34789C73.393 8.77959 73.6051 9.32259 73.6059 9.99989C73.6051 10.6772 73.393 11.2202 72.968 11.6519C72.541 12.0835 72.0285 12.2952 71.4094 12.2964C70.7898 12.2952 70.2785 12.0835 69.8504 11.6519L69.7793 11.7222ZM73.6094 12.2245L73.5379 12.155C72.9645 12.7425 72.2633 13.0327 71.4094 13.0339C70.5551 13.0327 69.8539 12.7425 69.2816 12.155L69.2789 12.1519L69.2816 12.155C68.7094 11.5655 68.427 10.8546 68.4262 9.99989C68.427 9.14519 68.7094 8.43429 69.2816 7.84479C69.8539 7.25729 70.5551 6.96669 71.4094 6.96549C72.2578 6.96669 72.9574 7.25849 73.534 7.84909C74.1082 8.44129 74.3922 9.15109 74.3934 9.99989C74.3922 10.8546 74.109 11.5655 73.5379 12.155L73.6094 12.2245L73.6813 12.294C74.2875 11.6714 74.5941 10.8991 74.5934 9.99989C74.5941 9.10579 74.2863 8.33508 73.6773 7.70968C73.068 7.08188 72.3047 6.76439 71.4094 6.76549C70.5094 6.76439 69.7438 7.08038 69.1383 7.70578V7.70538C68.5309 8.32838 68.2254 9.10069 68.2262 9.99989C68.2254 10.8991 68.5309 11.6714 69.1383 12.2944L69.141 12.2972L69.1383 12.294C69.7438 12.9194 70.5094 13.2347 71.4094 13.2339C72.309 13.2347 73.0746 12.9194 73.6813 12.294L73.6094 12.2245Z" fill="white"/>
<path d="M75.5754 13V7H76.5137L79.4297 11.6676H79.4629L79.4297 10.5113V7H80.2012V13H79.3965L76.3457 8.1062H76.3125L76.3457 9.2629V13H75.5754Z" fill="white"/>
<path d="M75.5754 13.0001H75.6754V7.1001H76.4582L79.3742 11.7677H79.4629H79.5656L79.5297 10.5099V7.1001H80.1012V12.9001H79.452L76.4012 8.0063H76.3125H76.2098L76.2457 9.2646V12.9001H75.5754V13.0001H75.6754H75.5754V13.1001H76.3457H76.4457V9.2614L76.4125 8.1036L76.3125 8.1063V8.2063H76.3457V8.1063L76.2609 8.1595L79.341 13.1001H80.2012H80.3012V6.9001H79.4297H79.3297V10.5126L79.3629 11.6704L79.4629 11.6677V11.5677H79.4297V11.6677L79.5145 11.6146L76.5691 6.9001H75.5754H75.4754V13.1001H75.5754V13.0001Z" fill="white"/>
<path d="M106.936 30H108.802V17.4988H106.936V30ZM123.743 22.002L121.604 27.4219H121.54L119.32 22.002H117.31L120.639 29.5773L118.741 33.791H120.688L125.818 22.002H123.743ZM113.161 28.5801C112.549 28.5801 111.697 28.2746 111.697 27.5184C111.697 26.5535 112.759 26.1836 113.675 26.1836C114.496 26.1836 114.881 26.3605 115.38 26.602C115.235 27.7598 114.238 28.5801 113.161 28.5801ZM113.386 21.7285C112.035 21.7285 110.636 22.3238 110.057 23.6426L111.713 24.334C112.067 23.6426 112.726 23.4172 113.418 23.4172C114.383 23.4172 115.364 23.9965 115.38 25.0258V25.1543C115.042 24.9613 114.319 24.6719 113.434 24.6719C111.649 24.6719 109.831 25.6527 109.831 27.4863C109.831 29.159 111.295 30.2367 112.935 30.2367C114.19 30.2367 114.881 29.6738 115.316 29.0145H115.38V29.9793H117.181V25.1863C117.181 22.9672 115.525 21.7285 113.386 21.7285ZM101.854 23.5238H99.2V19.2387H101.854C103.249 19.2387 104.041 20.3937 104.041 21.3812C104.041 22.35 103.249 23.5238 101.854 23.5238ZM101.806 17.4988H97.335V30H99.2V25.2637H101.806C103.874 25.2637 105.907 23.7664 105.907 21.3812C105.907 18.9961 103.874 17.4988 101.806 17.4988ZM77.425 28.5824C76.1359 28.5824 75.0566 27.5031 75.0566 26.0207C75.0566 24.5227 76.1359 23.427 77.425 23.427C78.6977 23.427 79.6965 24.5227 79.6965 26.0207C79.6965 27.5031 78.6977 28.5824 77.425 28.5824ZM79.5676 22.702H79.5031C79.0844 22.2027 78.2785 21.7516 77.2637 21.7516C75.1371 21.7516 73.1879 23.6203 73.1879 26.0207C73.1879 28.4051 75.1371 30.2578 77.2637 30.2578C78.2785 30.2578 79.0844 29.8066 79.5031 29.2914H79.5676V29.9035C79.5676 31.5309 78.6977 32.4008 77.2961 32.4008C76.1523 32.4008 75.4434 31.5789 75.1531 30.8863L73.5262 31.5629C73.9934 32.6906 75.234 34.0762 77.2961 34.0762C79.4871 34.0762 81.3398 32.7871 81.3398 29.6457V22.0094H79.5676V22.702ZM82.6285 30H84.4973V17.4984H82.6285V30ZM87.2523 25.8758C87.2039 24.2324 88.525 23.3949 89.4754 23.3949C90.217 23.3949 90.845 23.7652 91.054 24.2973L87.2523 25.8758ZM93.052 24.4582C92.698 23.5074 91.618 21.7516 89.4109 21.7516C87.2199 21.7516 85.3996 23.4754 85.3996 26.0047C85.3996 28.3891 87.2039 30.2578 89.6203 30.2578C91.57 30.2578 92.698 29.0656 93.165 28.373L91.715 27.4062C91.232 28.1152 90.571 28.5824 89.6203 28.5824C88.6699 28.5824 87.9934 28.1473 87.5582 27.2937L93.245 24.9414L93.052 24.4582ZM47.7438 23.0566V24.8609H52.0613C51.9324 25.8758 51.5941 26.6168 51.0785 27.1324C50.4504 27.7609 49.4676 28.4535 47.7438 28.4535C45.0855 28.4535 43.0074 26.3109 43.0074 23.6527C43.0074 20.9945 45.0855 18.8516 47.7438 18.8516C49.1777 18.8516 50.2246 19.4156 50.998 20.1406L52.2707 18.868C51.1914 17.8367 49.7574 17.0473 47.7438 17.0473C44.1027 17.0473 41.0418 20.0117 41.0418 23.6527C41.0418 27.2937 44.1027 30.2578 47.7438 30.2578C49.7094 30.2578 51.1914 29.6137 52.3512 28.4051C53.5434 27.2129 53.9141 25.5375 53.9141 24.1844C53.9141 23.7652 53.882 23.3789 53.8172 23.0566H47.7438ZM58.8227 28.5824C57.5336 28.5824 56.4219 27.5191 56.4219 26.0047C56.4219 24.4742 57.5336 23.427 58.8227 23.427C60.1113 23.427 61.223 24.4742 61.223 26.0047C61.223 27.5191 60.1113 28.5824 58.8227 28.5824ZM58.8227 21.7516C56.4703 21.7516 54.5531 23.5398 54.5531 26.0047C54.5531 28.4535 56.4703 30.2578 58.8227 30.2578C61.1746 30.2578 63.0918 28.4535 63.0918 26.0047C63.0918 23.5398 61.1746 21.7516 58.8227 21.7516ZM68.1359 28.5824C66.8473 28.5824 65.7355 27.5191 65.7355 26.0047C65.7355 24.4742 66.8473 23.427 68.1359 23.427C69.4246 23.427 70.5363 24.4742 70.5363 26.0047C70.5363 27.5191 69.4246 28.5824 68.1359 28.5824ZM68.1359 21.7516C65.7836 21.7516 63.8668 23.5398 63.8668 26.0047C63.8668 28.4535 65.7836 30.2578 68.1359 30.2578C70.4879 30.2578 72.4051 28.4535 72.4051 26.0047C72.4051 23.5398 70.4879 21.7516 68.1359 21.7516Z" fill="white"/>
<path d="M10.5098 32.3896L10.4355 32.3185C10.1445 32.0106 9.9727 31.5325 9.9727 30.9134V31.0591V8.94315C9.9727 8.94115 9.9727 8.93965 9.9727 8.93805C9.9727 8.93995 9.9727 8.94155 9.9727 8.94355V9.08965C9.9727 8.41925 10.173 7.91425 10.5086 7.61145L22.8984 20.0009L10.5098 32.3896ZM9.9727 8.93685C9.9727 8.88175 9.9742 8.82825 9.977 8.77555C9.9742 8.82785 9.9727 8.88175 9.9727 8.93685ZM9.977 8.77315C9.977 8.77245 9.977 8.77165 9.9773 8.77085C9.977 8.77165 9.977 8.77245 9.977 8.77315ZM9.9773 8.76615C9.9773 8.76575 9.9773 8.76535 9.9773 8.76495C9.9773 8.76535 9.9773 8.76575 9.9773 8.76615Z" fill="url(#paint0_linear)"/>
<path d="M27.0277 24.2783L27.1219 24.2248L32.0148 21.4447C32.4813 21.1795 32.7922 20.858 32.9473 20.5178C32.7926 20.858 32.4816 21.1799 32.0148 21.4451L27.1219 24.2252L27.0277 24.2783ZM27.0289 24.1318L22.8984 20.0006L27.0285 15.8701L32.0148 18.7029C32.648 19.0627 33.0035 19.5264 33.0629 20.0002C33.0629 20.0006 33.0629 20.0014 33.0629 20.0021C33.0035 20.4748 32.648 20.9389 32.0148 21.2986L27.0289 24.1318Z" fill="url(#paint1_linear)"/>
<path d="M11.393 32.8613C11.0469 32.8613 10.7449 32.7488 10.5094 32.5363L10.5098 32.5359C10.7453 32.7484 11.0477 32.8613 11.3938 32.8613C11.4238 32.8613 11.4543 32.8605 11.4852 32.859C11.4539 32.8605 11.423 32.8613 11.393 32.8613ZM11.3934 32.7148C11.0473 32.7152 10.7453 32.6023 10.5098 32.3898V32.3895L22.8984 20.0008L27.0289 24.132L12.5137 32.3793C12.1121 32.607 11.7316 32.7148 11.3934 32.7148ZM10.5063 32.5336C10.4844 32.5137 10.4629 32.4926 10.4418 32.4707L10.5063 32.5336Z" fill="url(#paint2_linear)"/>
<path d="M22.8984 20.001L10.5086 7.61148C10.7441 7.39938 11.0457 7.28688 11.3914 7.28688C11.7305 7.28688 12.1113 7.39508 12.5137 7.62318L27.0285 15.8705L22.8984 20.001ZM27.1219 15.7772L12.5137 7.47718C12.1113 7.24898 11.7305 7.14078 11.3914 7.14078C11.3898 7.14078 11.3887 7.14078 11.3871 7.14078C11.3891 7.14078 11.3906 7.14078 11.393 7.14078C11.7313 7.14078 12.1117 7.24858 12.5137 7.47678L27.1219 15.7772Z" fill="url(#paint3_linear)"/>
<path d="M11.4852 32.8589C11.7996 32.8409 12.1477 32.7327 12.5137 32.5253L27.0277 24.2784L12.5137 32.5253C12.148 32.7331 11.7996 32.8409 11.4852 32.8589ZM10.5094 32.5362L10.5063 32.5335C10.5074 32.5343 10.5086 32.5354 10.5094 32.5362ZM10.4418 32.4706L10.4355 32.4644V32.464C10.4379 32.4663 10.4398 32.4686 10.4418 32.4706Z" fill="black"/>
<path d="M27.0277 24.2783L27.1219 24.2248L27.0277 24.2783Z" fill="url(#paint4_linear)"/>
<path d="M11.3938 32.8613C11.0477 32.8613 10.7453 32.7484 10.5098 32.5359L10.5094 32.5363C10.5086 32.5355 10.5074 32.5344 10.5063 32.5336L10.4418 32.4707C10.4398 32.4687 10.4379 32.4664 10.4355 32.4641L10.5098 32.3898C10.7453 32.6023 11.0473 32.7152 11.3934 32.7148C11.7316 32.7148 12.1121 32.607 12.5137 32.3793L27.0289 24.132L27.1219 24.225L27.0277 24.2785L12.5137 32.5254C12.1477 32.7328 11.7996 32.841 11.4852 32.859C11.4543 32.8605 11.4238 32.8613 11.3938 32.8613Z" fill="url(#paint5_linear)"/>
<path d="M10.4355 32.4644C10.1445 32.1565 9.9727 31.6784 9.9727 31.0593V31.0589C9.9727 31.6784 10.1445 32.1561 10.4355 32.464V32.4644Z" fill="black"/>
<path d="M10.4355 32.4639C10.1445 32.156 9.9727 31.6783 9.9727 31.0588V30.9131C9.9727 31.5322 10.1445 32.0103 10.4355 32.3182L10.5098 32.3893L10.4355 32.4639Z" fill="url(#paint6_linear)"/>
<path d="M10.4355 32.4639L10.5098 32.3893V32.3896L10.4355 32.4639Z" fill="url(#paint7_linear)"/>
<path d="M32.9473 20.5181C33.0242 20.3493 33.0629 20.1759 33.0629 20.0024C33.0629 20.0021 33.0629 20.0017 33.0629 20.0017C33.0629 20.1755 33.0242 20.3489 32.9473 20.5181Z" fill="black"/>
<path d="M27.1219 24.2251L27.0289 24.1321L32.0148 21.2989C32.648 20.9392 33.0035 20.4751 33.0629 20.0024C33.0629 20.1759 33.0242 20.3493 32.9473 20.5181C32.7922 20.8583 32.4813 21.1798 32.0148 21.445L27.1219 24.2251Z" fill="url(#paint8_linear)"/>
<path d="M33.0629 20.001V20.0006C33.0625 19.4775 32.7129 18.9545 32.0148 18.5576L27.1219 15.7775H27.1215L27.1219 15.7772L32.0148 18.5572C32.7137 18.9541 33.0637 19.4779 33.0629 20.001Z" fill="#404040"/>
<path d="M33.0629 20.0005C33.0035 19.5267 32.648 19.063 32.0148 18.7032L27.0285 15.8704L27.1215 15.7774H27.1219L32.0148 18.5575C32.7129 18.9544 33.0625 19.4774 33.0629 20.0005Z" fill="url(#paint9_linear)"/>
<path d="M9.9727 8.93799C9.9727 8.93759 9.9727 8.93719 9.9727 8.93679C9.9727 8.93719 9.9727 8.93759 9.9727 8.93799ZM9.977 8.77549C9.977 8.77469 9.977 8.77389 9.977 8.77309C9.977 8.77389 9.977 8.77469 9.977 8.77549ZM9.9773 8.77079C9.9773 8.76919 9.9773 8.76769 9.9773 8.76609C9.9773 8.76769 9.9773 8.76919 9.9773 8.77079ZM9.9773 8.76489C10.0352 7.73759 10.5938 7.14419 11.384 7.14069C11.0414 7.14269 10.743 7.25519 10.5094 7.46569V7.46529L10.5066 7.46809C10.482 7.49029 10.4586 7.51379 10.4355 7.53799C10.173 7.81569 10.0074 8.23169 9.9773 8.76489Z" fill="#404040"/>
<path d="M9.9727 9.08984V8.94374C9.9727 8.94174 9.9727 8.94014 9.9727 8.93824C9.9727 8.93784 9.9727 8.93745 9.9727 8.93705C9.9727 8.88195 9.9742 8.82804 9.977 8.77574C9.977 8.77494 9.977 8.77415 9.977 8.77335C9.977 8.77265 9.977 8.77184 9.9773 8.77104C9.9773 8.76944 9.9773 8.76795 9.9773 8.76635C9.9773 8.76595 9.9773 8.76555 9.9773 8.76515C10.0074 8.23195 10.173 7.81594 10.4355 7.53824L10.5086 7.61165C10.173 7.91445 9.9727 8.41944 9.9727 9.08984ZM10.5066 7.46834L10.5094 7.46555C10.5086 7.46675 10.5074 7.46754 10.5066 7.46834Z" fill="url(#paint10_linear)"/>
<path d="M27.0285 15.8701L12.5137 7.62282C12.1113 7.39472 11.7305 7.28652 11.3914 7.28652C11.0457 7.28652 10.7441 7.39902 10.5086 7.61112L10.4355 7.53772C10.4586 7.51352 10.482 7.49002 10.5066 7.46782C10.5074 7.46702 10.5086 7.46622 10.5094 7.46542C10.743 7.25492 11.0414 7.14242 11.384 7.14042C11.3848 7.14042 11.3859 7.14042 11.3871 7.14042C11.3887 7.14042 11.3898 7.14042 11.3914 7.14042C11.7305 7.14042 12.1113 7.24862 12.5137 7.47682L27.1219 15.7768L27.1215 15.7771L27.0285 15.8701Z" fill="url(#paint11_linear)"/>
<defs>
<linearGradient id="paint0_linear" x1="21.7998" y1="8.70985" x2="5.0173" y2="25.4924" gradientUnits="userSpaceOnUse">
<stop stop-color="#00A0FF"/>
<stop offset="0.00657445" stop-color="#00A1FF"/>
<stop offset="0.2601" stop-color="#00BEFF"/>
<stop offset="0.5122" stop-color="#00D2FF"/>
<stop offset="0.7604" stop-color="#00DFFF"/>
<stop offset="1" stop-color="#00E3FF"/>
</linearGradient>
<linearGradient id="paint1_linear" x1="33.8344" y1="20.0012" x2="9.63741" y2="20.0012" gradientUnits="userSpaceOnUse">
<stop stop-color="#FFE000"/>
<stop offset="0.4087" stop-color="#FFBD00"/>
<stop offset="0.7754" stop-color="#FFA500"/>
<stop offset="1" stop-color="#FF9C00"/>
</linearGradient>
<linearGradient id="paint2_linear" x1="24.827" y1="22.2961" x2="2.06869" y2="45.0544" gradientUnits="userSpaceOnUse">
<stop stop-color="#FF3A44"/>
<stop offset="1" stop-color="#C31162"/>
</linearGradient>
<linearGradient id="paint3_linear" x1="7.29729" y1="0.176379" x2="17.4598" y2="10.3389" gradientUnits="userSpaceOnUse">
<stop stop-color="#32A071"/>
<stop offset="0.0685" stop-color="#2DA771"/>
<stop offset="0.4762" stop-color="#15CF74"/>
<stop offset="0.8009" stop-color="#06E775"/>
<stop offset="1" stop-color="#00F076"/>
</linearGradient>
<linearGradient id="paint4_linear" x1="33.8343" y1="20.0012" x2="9.63767" y2="20.0012" gradientUnits="userSpaceOnUse">
<stop stop-color="#CCB300"/>
<stop offset="0.4087" stop-color="#CC9700"/>
<stop offset="0.7754" stop-color="#CC8400"/>
<stop offset="1" stop-color="#CC7D00"/>
</linearGradient>
<linearGradient id="paint5_linear" x1="24.827" y1="22.2961" x2="2.0687" y2="45.0544" gradientUnits="userSpaceOnUse">
<stop stop-color="#CC2E36"/>
<stop offset="1" stop-color="#9C0E4E"/>
</linearGradient>
<linearGradient id="paint6_linear" x1="21.7998" y1="8.70945" x2="5.0173" y2="25.492" gradientUnits="userSpaceOnUse">
<stop stop-color="#008DE0"/>
<stop offset="0.00657445" stop-color="#008DE0"/>
<stop offset="0.2601" stop-color="#00A7E0"/>
<stop offset="0.5122" stop-color="#00B8E0"/>
<stop offset="0.7604" stop-color="#00C4E0"/>
<stop offset="1" stop-color="#00C7E0"/>
</linearGradient>
<linearGradient id="paint7_linear" x1="24.8272" y1="22.2958" x2="2.06886" y2="45.0545" gradientUnits="userSpaceOnUse">
<stop stop-color="#E0333C"/>
<stop offset="1" stop-color="#AB0F56"/>
</linearGradient>
<linearGradient id="paint8_linear" x1="33.8344" y1="20.0015" x2="9.6374" y2="20.0015" gradientUnits="userSpaceOnUse">
<stop stop-color="#E0C500"/>
<stop offset="0.4087" stop-color="#E0A600"/>
<stop offset="0.7754" stop-color="#E09100"/>
<stop offset="1" stop-color="#E08900"/>
</linearGradient>
<linearGradient id="paint9_linear" x1="33.8344" y1="20.0015" x2="9.6374" y2="20.0015" gradientUnits="userSpaceOnUse">
<stop stop-color="#FFE840"/>
<stop offset="0.4087" stop-color="#FFCE40"/>
<stop offset="0.7754" stop-color="#FFBC40"/>
<stop offset="1" stop-color="#FFB540"/>
</linearGradient>
<linearGradient id="paint10_linear" x1="21.7998" y1="8.71004" x2="5.0173" y2="25.4925" gradientUnits="userSpaceOnUse">
<stop stop-color="#40B8FF"/>
<stop offset="0.00657445" stop-color="#40B9FF"/>
<stop offset="0.2601" stop-color="#40CEFF"/>
<stop offset="0.5122" stop-color="#40DDFF"/>
<stop offset="0.7604" stop-color="#40E7FF"/>
<stop offset="1" stop-color="#40EAFF"/>
</linearGradient>
<linearGradient id="paint11_linear" x1="7.2973" y1="0.176017" x2="17.4598" y2="10.3385" gradientUnits="userSpaceOnUse">
<stop stop-color="#65B895"/>
<stop offset="0.0685" stop-color="#62BD95"/>
<stop offset="0.4762" stop-color="#50DB97"/>
<stop offset="0.8009" stop-color="#44ED98"/>
<stop offset="1" stop-color="#40F498"/>
</linearGradient>
</defs>
</svg>
