<svg width="183" height="72" viewBox="0 0 183 72" fill="none" xmlns="http://www.w3.org/2000/svg">
<path d="M71.0002 70.977L1.02323 71L1 1.02302L70.977 1L71.0002 70.977Z" fill="white" stroke="black" stroke-miterlimit="2" stroke-linejoin="round"/>
<path d="M1.44135 70.5107C1.63327 70.509 1.82456 70.5069 2.01648 70.5069C24.6599 70.4994 47.3027 70.4914 69.9466 70.4833C70.1527 70.4831 70.3587 70.4705 70.5652 70.4632L70.587 70.576C47.6721 70.5837 24.7554 70.5915 1.83984 70.5933C1.71028 70.5931 1.5395 70.6959 1.44135 70.5107Z" fill="#A4A1A1"/>
<path d="M182.488 63.1037L182.401 63.1054C182.249 62.9367 182.257 62.7247 182.257 62.5194C182.253 60.0719 182.251 57.6259 182.254 55.1791C182.255 54.9893 182.241 54.7919 182.378 54.631L182.485 54.6046C182.485 57.438 182.487 60.2712 182.488 63.1037Z" fill="#8E8A8B"/>
<path d="M182.377 54.6326C182.383 54.8235 182.395 55.0146 182.394 55.2052C182.397 57.8394 182.399 60.4731 182.4 63.1064C182.242 63.1637 182.078 63.1363 181.918 63.1355C173.744 63.1405 165.571 63.1426 157.398 63.1451H157.221C156.837 63.1413 156.838 63.1405 156.833 62.7569L156.834 62.5811C156.827 45.024 156.821 27.4687 156.818 9.91207C156.817 9.2821 156.722 9.35096 157.379 9.35033C160.021 9.34719 162.661 9.34761 165.302 9.34677C165.42 9.34698 165.537 9.35033 165.656 9.34677C165.789 9.34342 165.837 9.40789 165.833 9.53534C165.828 9.66824 165.832 9.80051 165.832 9.93362C165.837 24.6428 165.843 39.3514 165.847 54.0594C165.847 54.6259 165.847 54.6268 166.4 54.6265C171.563 54.6249 176.727 54.6226 181.89 54.6213C182.052 54.6219 182.214 54.6288 182.377 54.6326Z" fill="black"/>
<path d="M101.666 36.1732C101.663 27.3794 101.66 18.585 101.659 9.79186C101.658 9.14473 101.588 9.22991 102.224 9.22866C104.939 9.22531 107.653 9.22636 110.369 9.22426C110.471 9.22489 110.576 9.2297 110.678 9.22343C110.841 9.21443 110.93 9.2724 110.919 9.44967C110.912 9.55159 110.918 9.65603 110.918 9.75921C110.924 27.3606 110.93 44.9641 110.935 62.5659C110.935 63.1689 111.013 63.108 110.394 63.1082C107.68 63.1109 104.965 63.1122 102.249 63.1103C101.606 63.1099 101.676 63.19 101.675 62.5548C101.671 53.7612 101.669 44.9672 101.666 36.1732Z" fill="black"/>
<path d="M140.65 39.3934C140.612 41.0876 140.509 42.7816 140.321 44.4668C140.068 46.7228 139.726 48.9624 138.921 51.1026C138.588 51.9886 138.17 52.8314 137.576 53.574C136.835 54.5007 135.923 55.156 134.723 55.3527C133.125 55.6147 131.751 55.1886 130.614 54.0329C129.889 53.2968 129.396 52.4101 129.005 51.4658C128.439 50.0985 128.097 48.6698 127.845 47.2169C127.345 44.3187 127.161 41.3944 127.115 38.4577C127.103 37.7067 127.112 36.9552 127.112 36.2034C127.098 33.9031 127.13 31.6028 127.327 29.3108C127.532 26.9161 127.827 24.535 128.544 22.2284C128.908 21.0553 129.376 19.9306 130.132 18.9486C130.805 18.0735 131.63 17.4124 132.729 17.1508C134.467 16.7381 135.965 17.1681 137.206 18.4471C137.999 19.2644 138.505 20.2623 138.907 21.3152C139.483 22.8221 139.819 24.39 140.057 25.9797C140.722 30.4293 140.751 34.9098 140.65 39.3934ZM149.716 36.8321C149.71 33.3231 149.572 30.4238 149.191 27.5379C148.92 25.476 148.528 23.44 147.934 21.445C147.245 19.1323 146.314 16.9304 144.915 14.9467C143.628 13.1196 142.03 11.6449 140.006 10.6604C138.369 9.86408 136.633 9.4612 134.818 9.37686C133.384 9.3103 131.961 9.37749 130.554 9.69038C127.507 10.3689 125.08 12.0035 123.198 14.4735C121.809 16.2971 120.851 18.3427 120.13 20.5082C118.944 24.0718 118.443 27.7572 118.199 31.4881C118.081 33.2978 118.067 35.1115 118.075 36.9257C118.089 39.465 118.225 41.9945 118.535 44.5156C118.799 46.6684 119.192 48.7946 119.798 50.8787C120.437 53.0802 121.298 55.1876 122.564 57.1101C123.981 59.2608 125.791 60.9732 128.169 62.0266C129.692 62.7007 131.293 63.0463 132.957 63.1247C134.526 63.1984 136.079 63.1078 137.604 62.7187C140.553 61.9707 142.877 60.3066 144.679 57.8814C146.154 55.8944 147.131 53.665 147.853 51.314C148.815 48.1853 149.28 44.9668 149.523 41.7128C149.659 39.8882 149.729 38.0606 149.716 36.8321Z" fill="black"/>
<path d="M44.624 35.7865C44.7056 36.0021 44.6506 36.2235 44.6502 36.4418C44.6558 41.8095 44.6565 47.1772 44.659 52.5451C44.659 53.0644 44.659 53.0644 44.1537 53.0648C38.7262 53.0658 33.2993 53.0675 27.8728 53.07L27.6951 53.0698C27.3564 53.0717 27.3581 53.0983 27.3575 52.7358C27.356 47.132 27.3529 41.5276 27.3506 35.9234L27.3717 35.7936C27.5383 35.6327 27.7531 35.6555 27.9563 35.6555C33.3156 35.6501 38.6758 35.6478 44.0357 35.6492C44.2406 35.6494 44.4514 35.6415 44.624 35.7865Z" fill="black"/>
<path d="M44.6346 35.7886L27.3823 35.7958C27.3752 35.6491 27.3634 35.5023 27.3632 35.3554C27.3597 29.986 27.3586 24.6173 27.3565 19.2488L27.3555 19.0278C27.3247 18.7877 27.4403 18.7107 27.6619 18.7345L27.8833 18.7358C33.296 18.7345 38.7085 18.7314 44.1224 18.731C44.6863 18.7322 44.6524 18.6519 44.6522 19.2419C44.6538 24.6112 44.6566 29.9802 44.657 35.3485C44.6568 35.4961 44.6421 35.6428 44.6346 35.7886Z" fill="#B41400"/>
</svg>
