<svg xmlns="http://www.w3.org/2000/svg" width="108" height="43" viewBox="0 0 108 43">
  <g fill="none">
    <polygon fill="#FFFFFF" stroke="#000000" stroke-width=".5" points="41.553 41.966 .401 41.98 .387 .702 41.539 .688"/>
    <path fill="#A4A1A1" d="M0.642195122,41.6957015 C0.755059846,41.6946348 0.86755533,41.6933015 0.980420054,41.6933015 C14.2966113,41.6885015 27.6124334,41.6834348 40.9288708,41.6782348 C41.050105,41.6781015 41.1712161,41.6701015 41.2926965,41.6654348 L41.3054968,41.7373015 C27.8296703,41.7422348 14.352736,41.7471682 0.876540199,41.7483682 C0.800353433,41.7482348 0.699919828,41.8137015 0.642195122,41.6957015"/>
    <path fill="#8E8A8B" d="M107.116462,37.321642 L107.065261,37.3226296 C106.976274,37.2231235 106.980951,37.0980617 106.980582,36.9769506 C106.978489,35.5332469 106.977012,34.0904074 106.979228,32.6470741 C106.97972,32.5350988 106.971104,32.418679 107.051968,32.3237407 L107.114739,32.3081852 C107.114862,33.9795432 107.116093,35.6507778 107.116462,37.321642"/>
    <path fill="#FFFFFF" d="M107.051722,32.3238642 C107.055414,32.4364568 107.062307,32.5491728 107.061938,32.661642 C107.063538,34.2154691 107.064645,35.7690494 107.065261,37.3223827 C106.972458,37.3562099 106.876086,37.340037 106.781807,37.3395432 C101.974902,37.3425062 97.1688584,37.3437407 92.3620766,37.3452222 L92.2581967,37.3452222 C92.0325903,37.343 92.0328365,37.3425062 92.0301287,37.1162099 L92.0303749,37.0125062 C92.0266825,26.655963 92.0231131,16.3004074 92.0208977,5.94411111 C92.0207746,5.57250617 91.96465,5.61312346 92.3512455,5.61275309 C93.9045201,5.61090123 95.4575486,5.61114815 97.0104539,5.61051312 C97.0798713,5.61051312 97.1487963,5.61275309 97.2184598,5.61051312 C97.296862,5.60867901 97.3250474,5.6467037 97.322832,5.72188889 C97.3195088,5.80028395 97.3223397,5.87830864 97.3222166,5.95682716 C97.3251705,14.6334938 97.3283706,23.3097901 97.3310784,31.985716 C97.3312014,32.3199136 97.3309553,32.3204074 97.6562568,32.320284 C100.69265,32.3192963 103.729167,32.3179383 106.765806,32.3171975 C106.860824,32.3175679 106.956335,32.321642 107.051722,32.3238642 M59.587736,21.4355926 C59.586136,16.2483086 59.5841667,11.0606543 59.5833051,5.87374074 C59.5829359,5.49201235 59.5417039,5.54225926 59.9158683,5.54151852 C61.5124673,5.53954321 63.1086969,5.54016049 64.7054189,5.53892593 C64.7657283,5.5392963 64.8275147,5.5421358 64.8875779,5.5384321 C64.9834575,5.53312346 65.0355206,5.56732099 65.0292435,5.67188889 C65.0253049,5.73201235 65.028628,5.79361728 65.0287511,5.85448148 C65.0321974,16.2371975 65.0357667,26.6211481 65.0385976,37.0041111 C65.0384745,37.3597901 65.0842604,37.3238642 64.7204347,37.3239877 C63.124082,37.3255926 61.5276061,37.3263333 59.930638,37.3252222 C59.552535,37.3249753 59.5937669,37.3722593 59.5931515,36.9975679 C59.590813,31.8104074 59.589336,26.623 59.587736,21.4355926 M82.5173679,23.3363333 C82.4949673,24.335716 82.4346579,25.3349753 82.3241317,26.3290494 C82.1754505,27.6597901 81.9744603,28.9809012 81.5008469,30.2433704 C81.3051491,30.765963 81.0589883,31.2631235 80.709563,31.7011481 C80.2742276,32.2478148 79.7375971,32.634358 79.031731,32.7504074 C78.0925045,32.9049753 77.2839894,32.6536173 76.6154167,31.9718889 C76.1890662,31.5376914 75.8995811,31.0146049 75.6696669,30.4575679 C75.3364883,29.6510247 75.1353749,28.8083086 74.9874322,27.9512716 C74.6930239,26.241642 74.5847132,24.5167037 74.5581278,22.784358 C74.5511122,22.3413951 74.5561585,21.8980617 74.5560355,21.4546049 C74.5479121,20.0976914 74.5666204,18.7407778 74.682439,17.3888025 C74.8031809,15.9762099 74.9766012,14.571642 75.3982746,13.2110247 C75.6125576,12.5190494 75.8876423,11.8555926 76.3322087,11.2763333 C76.7277891,10.7601605 77.2130951,10.3701605 77.8596364,10.2158395 C78.8812037,9.97238272 79.7623363,10.2260864 80.4919569,10.9805309 C80.9585547,11.4626296 81.2564092,12.0512716 81.4928467,12.6723827 C81.8315639,13.5612716 82.0288618,14.4860864 82.1686811,15.4238642 C82.5601999,18.0485556 82.5766926,20.6915185 82.5173679,23.3363333 M87.8492107,21.8254691 C87.8455183,19.7555926 87.7645314,18.0453457 87.5402789,16.343 C87.3807667,15.1267037 87.1504833,13.925716 86.8013042,12.7489259 C86.3960005,11.3847284 85.8484158,10.0858395 85.0259925,8.91571605 C84.2688019,7.83793827 83.3292062,6.96806173 82.1386495,6.38732099 C81.1761608,5.9175679 80.1552089,5.67991358 79.0877326,5.63016049 C78.2445088,5.59090123 77.4075621,5.63053086 76.5800926,5.81509877 C74.7881651,6.21534568 73.361171,7.17954321 72.2545551,8.63658025 C71.4373013,9.71225926 70.8740854,10.9189259 70.4501965,12.1963333 C69.7524537,14.2984321 69.4581685,16.4723827 69.3147798,18.6731235 C69.2453625,19.7406543 69.2367468,20.8105309 69.2419162,21.8806543 C69.2500395,23.3785556 69.3299187,24.8706543 69.5122008,26.3578148 C69.6676513,27.6276914 69.8984271,28.8818889 70.2546217,30.1112716 C70.6305093,31.4099136 71.1367389,32.653 71.8813753,33.7870741 C72.7149989,35.055716 73.7790289,36.0658395 75.1775915,36.6871975 C76.0731244,37.0848519 77.0146895,37.288679 77.9934248,37.3349753 C78.9160355,37.3784321 79.829292,37.3249753 80.7265481,37.0954691 C82.4603817,36.6542346 83.8273126,35.6726296 84.8870348,34.2420123 C85.7546285,33.0699136 86.3291678,31.7548519 86.7536721,30.3680617 C87.3194727,28.5225062 87.592465,26.6239877 87.7358537,24.7044815 C87.8153636,23.6281852 87.8569648,22.5501605 87.8492107,21.8254691"/>
    <path fill="#000000" d="M26.047343,21.2081852 C26.0953444,21.3353457 26.0629743,21.465963 26.0627281,21.5947284 C26.0660513,24.7610247 26.0664205,27.927321 26.0678975,31.0937407 C26.0678975,31.400037 26.0678975,31.400037 25.7707814,31.400284 C22.5789374,31.4009012 19.3874627,31.4018889 16.1962342,31.4033704 L16.0917389,31.4032469 C15.8925949,31.404358 15.8935795,31.420037 15.8932103,31.2062099 C15.8923487,27.9006543 15.8905025,24.5947284 15.8891486,21.2889259 L15.9015797,21.2123827 C15.9995517,21.1174444 16.1258322,21.1309012 16.2453433,21.1309012 C19.397063,21.1276914 22.5492751,21.1263333 25.701364,21.1271975 C25.8218598,21.127321 25.9458017,21.1226296 26.047343,21.2081852"/>
    <path fill="#B41400" d="M26.047343,21.2081852 L15.9015797,21.2123827 C15.897395,21.1258395 15.8905025,21.0392963 15.8903794,20.9526296 C15.888287,17.7853457 15.8876716,14.6184321 15.8864408,11.451642 L15.8858254,11.3212716 C15.8677326,11.1796667 15.935673,11.1342346 16.0660151,11.1483086 L16.1962342,11.1490494 C19.3793394,11.1483086 22.5623216,11.1464568 25.7461653,11.1462099 C26.0777439,11.1469506 26.0578049,11.0995432 26.0576818,11.4475679 C26.0586664,14.6148519 26.0602665,17.7818889 26.0605126,20.9485556 C26.0603896,21.0355926 26.0517739,21.1221358 26.047343,21.2081852"/>
  </g>
</svg>
