<?xml version="1.0" encoding="utf-8"?>
<!-- Generator: Adobe Illustrator 27.6.1, SVG Export Plug-In . SVG Version: 6.00 Build 0)  -->
<svg version="1.1" id="Layer_1" xmlns="http://www.w3.org/2000/svg" xmlns:xlink="http://www.w3.org/1999/xlink" x="0px" y="0px"
	 viewBox="0 0 2354.4 2396.9" style="enable-background:new 0 0 2354.4 2396.9;" xml:space="preserve">
<g>
	<path d="M2268.5,1896.8l-358.8-362.9l-409.1,414.8l358.8,362.9c111.8,113,294,113.9,406.9,2.1c0.7-0.7,1.4-1.4,2.1-2.1
		C2383,2196.9,2383,2011.3,2268.5,1896.8L2268.5,1896.8z"/>
	<path d="M1762,306.2C1352.7-102,690.2-102,280.8,306.2C-103.4,719.3-92,1362.3,306.7,1761.5S1348.4,2173,1762,1789.4
		C2171.6,1379.9,2171.6,715.8,1762,306.2L1762,306.2L1762,306.2z M1349.8,1377.3c-184.1,168.4-468.2,162.1-644.7-14.3
		s-183-460.4-14.8-644.7c184.1-168.4,468.2-162.1,644.7,14.3C1511.6,909,1518.1,1193,1349.8,1377.3L1349.8,1377.3z"/>
</g>
</svg>
