<?xml version="1.0" encoding="utf-8"?>
<!-- Generator: Adobe Illustrator 27.6.1, SVG Export Plug-In . SVG Version: 6.00 Build 0)  -->
<svg version="1.1" id="Layer_1" xmlns="http://www.w3.org/2000/svg" xmlns:xlink="http://www.w3.org/1999/xlink" x="0px" y="0px"
	 viewBox="0 0 2500 2500" style="enable-background:new 0 0 2500 2500;" xml:space="preserve">
<style type="text/css">
	.st0{fill:#FFFFFF;}
</style>
<path class="st0" d="M1250,0C790.5,0,416.7,373.8,416.7,833.3c0,137.9,34.5,274.7,100,396l687.7,1243.8
	c9.2,16.6,26.6,26.9,45.6,26.9s36.4-10.3,45.6-26.9l688-1244.2c65.3-120.9,99.8-257.7,99.8-395.6C2083.3,373.8,1709.5,0,1250,0z
	 M1250,1250c-229.7,0-416.7-186.9-416.7-416.7s186.9-416.7,416.7-416.7s416.7,186.9,416.7,416.7S1479.7,1250,1250,1250z"/>
</svg>
