<?xml version="1.0" encoding="UTF-8"?>
<svg id="Layer_1" data-name="Layer 1" xmlns="http://www.w3.org/2000/svg" viewBox="0 0 50 50">
  <defs>
    <style>
      .cls-1 {
        fill: #ffad9a;
      }

      .cls-2 {
        fill: #fff;
      }
    </style>
  </defs>
  <path class="cls-1" d="m25,5.31C13.82,5.31,4.75,14.37,4.75,25.55s9.07,20.25,20.25,20.25,20.24-9.07,20.24-20.25S36.18,5.31,25,5.31Zm11.27,13.33s0,.19-.11.35c-.52.69-1.08,1.31-1.77,1.83-.1.08-.27.16-.27.3,0,3.65-.93,7.29-3.59,9.93-3.38,3.36-8.46,4.27-12.96,3.03-.88-.24-1.71-.58-2.51-1-.27-.15-.53-.3-.78-.47-.07-.05-.12-.1-.06-.13.05-.03.1-.03.3,0,1.26.12,2.56-.06,3.75-.48.65-.23,2.06-.69,2.47-1.31.01-.02.02-.02.03-.03-.17-.04-.33-.04-.49-.07-1.23-.35-2.86-.96-3.62-3.03-.05-.12,0-.18.12-.16,1.01.08,1.37.03,1.73-.05-.2-.03-.4-.1-.59-.18-1.54-.58-2.67-2.09-2.87-3.72-.03-.18-.04-.34-.03-.52.01-.12.06-.16.17-.09.79.41,1.68.51,1.75.49-.19-.15-.38-.32-.56-.49-1.33-1.27-1.85-3.84-.78-5.45.08-.13.14-.13.25-.01,2.44,2.79,5.46,4.09,9.09,4.63.1.02.11,0,.1-.1-.1-.64-.11-1.27.04-1.91.16-.65.48-1.27.9-1.8.41-.5.93-.92,1.51-1.23.58-.3,1.21-.48,1.86-.52.67-.05,1.35.06,1.97.31.47.2.89.46,1.28.79.09.07.16.15.24.24.04.05.1.06.18.05.93-.24,1.8-.57,2.64-1.02.04-.02.07-.03.12-.01.04.03.03.08.01.12-.15.49-.42.95-.74,1.35-.21.26-.74.91-1.1.97.76-.12,1.53-.32,2.23-.63.09-.04.09-.06.09,0v.02Z"/>
  <path class="cls-2" d="m36.27,18.62v.02s0,.19-.11.35c-.52.69-1.08,1.31-1.77,1.83-.1.08-.27.16-.27.3,0,3.65-.93,7.29-3.59,9.93-3.38,3.36-8.46,4.27-12.96,3.03-.88-.24-1.71-.58-2.51-1-.27-.15-.53-.3-.78-.47-.07-.05-.12-.1-.06-.13.05-.03.1-.03.3,0,1.26.12,2.56-.06,3.75-.48.65-.23,2.06-.69,2.47-1.31.01-.02.02-.02.03-.03-.17-.04-.33-.04-.49-.07-1.23-.35-2.86-.96-3.62-3.03-.05-.12,0-.18.12-.16,1.01.08,1.37.03,1.73-.05-.2-.03-.4-.1-.59-.18-1.54-.58-2.67-2.09-2.87-3.72-.03-.18-.04-.34-.03-.52.01-.12.06-.16.17-.09.79.41,1.68.51,1.75.49-.19-.15-.38-.32-.56-.49-1.33-1.27-1.85-3.84-.78-5.45.08-.13.14-.13.25-.01,2.44,2.79,5.46,4.09,9.09,4.63.1.02.11,0,.1-.1-.1-.64-.11-1.27.04-1.91.16-.65.48-1.27.9-1.8.41-.5.93-.92,1.51-1.23.58-.3,1.21-.48,1.86-.52.67-.05,1.35.06,1.97.31.47.2.89.46,1.28.79.09.07.16.15.24.24.04.05.1.06.18.05.93-.24,1.8-.57,2.64-1.02.04-.02.07-.03.12-.01.04.03.03.08.01.12-.15.49-.42.95-.74,1.35-.21.26-.74.91-1.1.97.76-.12,1.53-.32,2.23-.63.09-.04.09-.06.09,0Z"/>
</svg>