<?xml version="1.0" encoding="UTF-8"?>
<svg id="Layer_1" data-name="Layer 1" xmlns="http://www.w3.org/2000/svg" viewBox="0 0 50 50">
  <defs>
    <style>
      .cls-1 {
        fill: #ffad9a;
      }
    </style>
  </defs>
  <path class="cls-1" d="m28.84,25.52c0,2.07-1.68,3.75-3.75,3.75s-3.74-1.68-3.74-3.75,1.68-3.74,3.74-3.74,3.75,1.68,3.75,3.74Z"/>
  <path class="cls-1" d="m25,5.31C13.82,5.31,4.75,14.37,4.75,25.55s9.07,20.25,20.25,20.25,20.24-9.07,20.24-20.25S36.18,5.31,25,5.31Zm11.86,24.95c0,3.93-3.19,7.13-7.13,7.13h-9.47c-3.93,0-7.13-3.2-7.13-7.13v-9.47c0-3.94,3.2-7.13,7.13-7.13h9.47c3.94,0,7.13,3.19,7.13,7.13v9.47Zm-7.13-14.37h-9.47c-2.7,0-4.9,2.2-4.9,4.9v9.47c0,2.7,2.2,4.9,4.9,4.9h9.47c2.7,0,4.9-2.2,4.9-4.9v-9.47c0-2.7-2.2-4.9-4.9-4.9Zm-4.64,15.48c-3.22,0-5.84-2.62-5.84-5.85s2.62-5.84,5.84-5.84,5.85,2.62,5.85,5.84-2.62,5.85-5.85,5.85Zm6.19-10.69c-.77,0-1.39-.63-1.39-1.39s.62-1.4,1.39-1.4,1.39.63,1.39,1.4-.62,1.39-1.39,1.39Z"/>
</svg>