<?xml version="1.0" encoding="UTF-8"?>
<svg id="Layer_1" data-name="Layer 1" xmlns="http://www.w3.org/2000/svg" viewBox="0 0 50 50">
  <defs>
    <style>
      .cls-1 {
        fill-rule: evenodd;
      }
    </style>
  </defs>
  <path class="cls-1" d="m24.31,5.74C13.89,5.74,5.44,14.04,5.44,24.28s8.45,18.55,18.88,18.55,18.88-8.3,18.88-18.55S34.74,5.74,24.31,5.74Zm5.16,12.03c0,.22-.18.39-.4.39h-1.7c-1.17,0-1.39.45-1.39,1.35v1.86h2.97c.11,0,.21.04.28.12.07.07.12.17.12.28v3.18c0,.22-.18.39-.4.39h-2.97v8.03c0,.22-.18.39-.4.39h-3.31c-.22,0-.4-.18-.4-.39v-8.03h-2.54c-.22,0-.4-.18-.4-.39v-3.18c0-.22.18-.39.4-.39h2.54v-2.2c0-2.89,1.83-4.76,4.67-4.76h2.53c.22,0,.4.18.4.4v2.96Z"/>
</svg>