<?xml version="1.0" encoding="UTF-8"?>
<svg id="Layer_1" data-name="Layer 1" xmlns="http://www.w3.org/2000/svg" viewBox="0 0 50 50">
  <defs>
    <style>
      .cls-1 {
        fill-rule: evenodd;
      }
    </style>
  </defs>
  <path class="cls-1" d="m24.89,24.02c-1.7,0-3.09,1.36-3.09,3.02s1.39,3.02,3.09,3.02,3.09-1.36,3.09-3.02-1.39-3.02-3.09-3.02Z"/>
  <path class="cls-1" d="m28.59,19.18h-7.41c-2.38,0-4.32,1.9-4.32,4.23v7.26c0,2.34,1.94,4.23,4.32,4.23h7.41c2.38,0,4.32-1.9,4.32-4.23v-7.26c0-2.34-1.94-4.23-4.32-4.23Zm-3.7,12.7c-2.73,0-4.94-2.17-4.94-4.84s2.21-4.84,4.94-4.84,4.94,2.17,4.94,4.84-2.21,4.84-4.94,4.84Zm5.31-9.4c-.36,0-.66-.29-.66-.64s.29-.64.66-.64.66.29.66.64-.29.64-.66.64Z"/>
  <path class="cls-1" d="m25.2,8.71c-10.43,0-18.88,8.3-18.88,18.55s8.45,18.55,18.88,18.55,18.88-8.3,18.88-18.55-8.45-18.55-18.88-18.55Zm9.57,21.96c0,3.34-2.76,6.05-6.17,6.05h-7.41c-3.41,0-6.17-2.71-6.17-6.05v-7.26c0-3.34,2.76-6.05,6.17-6.05h7.41c3.41,0,6.17,2.71,6.17,6.05v7.26Z"/>
</svg>