<?xml version="1.0" encoding="UTF-8"?>
<svg id="Layer_1" data-name="Layer 1" xmlns="http://www.w3.org/2000/svg" viewBox="0 0 50 50">
  <defs>
    <style>
      .cls-1 {
        fill-rule: evenodd;
      }
    </style>
  </defs>
  <path class="cls-1" d="m24.7,8.23c-10.46,0-18.94,8.3-18.94,18.54s8.48,18.54,18.94,18.54,18.94-8.3,18.94-18.54-8.48-18.54-18.94-18.54Zm-7.4,8.67c1.19,0,2.16.95,2.16,2.12s-.97,2.12-2.16,2.12-2.16-.95-2.16-2.12.97-2.12,2.16-2.12Zm2.26,19.36h-4.42v-13.31h4.42v13.31Zm15.34,0h-4.42v-8.47c-1.41-3.35-4.75,1.21-4.75,1.21v7.26h-4.42v-13.31h4.42v2.54c.54-.71,2.17-2.54,4.75-2.54.3,0,.56.03.79.08.06,0,.12.02.18.03.05.01.09.03.14.04,1.9.49,3.3,2.16,3.3,4.17v8.98Z"/>
</svg>