<?xml version="1.0" encoding="UTF-8"?>
<svg id="Layer_1" data-name="Layer 1" xmlns="http://www.w3.org/2000/svg" viewBox="0 0 50 50">
  <defs>
    <style>
      .cls-1 {
        fill-rule: evenodd;
      }
    </style>
  </defs>
  <path class="cls-1" d="m24.88,7.49C14.45,7.49,6,15.8,6,26.06s8.45,18.57,18.88,18.57,18.88-8.31,18.88-18.57S35.3,7.49,24.88,7.49Zm9.87,13.53c.01.21.02.42.02.63,0,6.45-5.16,13.9-14.6,13.9-2.9,0-5.6-.8-7.87-2.19.4.05.81.07,1.23.07,2.4,0,4.61-.78,6.36-2.08-2.24-.05-4.13-1.47-4.79-3.4.31.07.64.08.97.08.47,0,.93-.05,1.34-.16-2.33-.45-4.11-2.43-4.11-4.8v-.05c.68.36,1.49.59,2.32.6-1.36-.87-2.28-2.37-2.28-4.06,0-.9.26-1.74.7-2.47,2.53,2.96,6.31,4.91,10.57,5.11-.08-.35-.12-.73-.12-1.11,0-2.69,2.29-4.89,5.13-4.89,1.46,0,2.81.59,3.75,1.55,1.17-.22,2.26-.62,3.25-1.18-.38,1.15-1.19,2.1-2.26,2.7,1.03-.13,2.02-.38,2.96-.77-.7.99-1.55,1.85-2.57,2.54Z"/>
</svg>