<?xml version="1.0" encoding="UTF-8"?>
<svg id="OBJECTS" xmlns="http://www.w3.org/2000/svg" viewBox="0 0 79 73">
  <defs>
    <style>
      .cls-1 {
        fill: #fffdfe;
      }
    </style>
  </defs>
  <path class="cls-1" d="m42.15,9.24c-14.81.08-26.8,12.2-26.72,27.02.08,14.81,12.2,26.8,27.02,26.72,14.81-.09,26.8-12.2,26.72-27.03-.08-14.81-12.2-26.79-27.02-26.71Zm.27,48.62c-11.99.07-21.82-9.63-21.89-21.63-.06-12,9.64-21.82,21.64-21.89,11.99-.06,21.82,9.64,21.88,21.64.07,11.99-9.63,21.82-21.63,21.88Z"/>
  <path class="cls-1" d="m51.09,36.47h-4.69c.04-.79.57-1.81,2.39-1.81,1.41,0,2.03.37,2.3,1.81Z"/>
  <path class="cls-1" d="m36.8,31.17h-3.26v3.35h3.49c1.11,0,1.95-.5,1.95-1.71,0-1.37-1.05-1.65-2.19-1.65Zm.48,5.74h-3.73v3.94h3.68c1.26,0,2.26-.4,2.26-1.89s-.84-2.05-2.21-2.05Zm0,0h-3.73v3.94h3.68c1.26,0,2.26-.4,2.26-1.89s-.84-2.05-2.21-2.05Zm1.71-4.09c0-1.37-1.05-1.65-2.19-1.65h-3.26v3.35h3.49c1.11,0,1.95-.5,1.95-1.71Zm3.31-14.06c-9.58,0-17.34,7.77-17.34,17.34s7.76,17.34,17.34,17.34,17.34-7.76,17.34-17.34-7.76-17.34-17.34-17.34Zm3.89,10.96h5.8v1.93h-5.8v-1.93Zm-8.54,13.46h-7.02v-14.43h6.82c2.75,0,4.63.97,4.63,3.65,0,1.41-.72,2.38-1.97,2.99,1.76.51,2.65,1.85,2.65,3.63,0,2.91-2.5,4.16-5.1,4.16Zm16.3-4.82h-7.56c.08,1.8.97,2.96,2.57,2.96,1.16,0,2.22-.94,2.4-1.59h2.53c-.8,2.45-2.66,3.73-5.03,3.73-3.3,0-5.38-2.24-5.38-5.46s2.2-5.48,5.38-5.48c3.57,0,5.3,2.64,5.09,5.84Zm-16.68-1.44h-3.73v3.94h3.68c1.26,0,2.26-.4,2.26-1.89s-.84-2.05-2.21-2.05Zm1.71-4.09c0-1.37-1.05-1.65-2.19-1.65h-3.26v3.35h3.49c1.11,0,1.95-.5,1.95-1.71Zm-2.19-1.65h-3.26v3.35h3.49c1.11,0,1.95-.5,1.95-1.71,0-1.37-1.05-1.65-2.19-1.65Zm.48,5.74h-3.73v3.94h3.68c1.26,0,2.26-.4,2.26-1.89s-.84-2.05-2.21-2.05Zm0,0h-3.73v3.94h3.68c1.26,0,2.26-.4,2.26-1.89s-.84-2.05-2.21-2.05Zm-.48-5.74h-3.26v3.35h3.49c1.11,0,1.95-.5,1.95-1.71,0-1.37-1.05-1.65-2.19-1.65Z"/>
  <path class="cls-1" d="m62.38,47.99s-.05-.02-.07-.03c-.86-.26-.56.97-.32,1.32.03.04.06.08.11.1.05.01.11,0,.15-.03.67-.3,1.1-1.01.13-1.36Zm-9.13-32.69c-.18.06-.4.39-.33.59.01.04.03.07.06.09.25.21.8.36.98-.01.18-.4-.34-.8-.71-.67Zm-10.97,45.75c-.12-.38-.35-.54-.59-.53-.26,0-.53.22-.65.58-.28.8.94.4,1.2.16.02-.03.05-.05.06-.08,0-.04,0-.08-.01-.12Zm-9.06-2.78c-.2-.34-.46-.44-.7-.38-.25.07-.46.34-.51.71-.09.84,1.01.18,1.2-.11.01-.04.04-.06.04-.1,0-.04-.02-.08-.04-.12Zm32.86-22.8s-.05-.02-.07-.03c-.86-.26-.56.97-.32,1.32.03.04.06.08.11.1.05.02.11,0,.15-.03.67-.3,1.1-1.01.13-1.36Zm-.1-3.89c-.28-.72-1.44-.12-1.57.41-.01.06,0,.11.02.16.16.34.41.75.86.63.45-.11.86-.75.69-1.2Zm.12,7.94s-.39-.34-.39-.34c-.35.34-.18.7.19.91.02.01.05.03.07.02.03,0,.04-.03.06-.05.11-.18.2-.34.08-.54Zm-8.89-24.03s-.04-.01-.07-.01c-.89-.13-.41,1.03-.11,1.35.03.04.07.07.11.08.06,0,.11-.02.15-.05.62-.39.94-1.17-.08-1.37Zm-39.06,12.99c-.18-.36-.43-.49-.66-.44-.26.04-.49.3-.56.67-.16.83.98.25,1.2-.02.02-.03.04-.06.05-.09,0-.04,0-.08-.03-.12Zm39.82-9.43c-.18.04-.45.32-.41.53,0,.04.02.07.05.1.22.25.75.48.97.13.24-.37-.22-.85-.6-.77Zm-7.85-7.73s-.44-.27-.44-.27c-.3.39-.07.71.32.88.03,0,.05.01.07,0,.03,0,.04-.04.05-.06.08-.2.15-.37,0-.56Zm-5.95-1.22c-.18.04-.46.33-.42.54,0,.04.03.07.05.1.22.25.75.48.97.13.25-.37-.21-.84-.6-.77Zm-5.59,49.54c-.2-.34-.47-.45-.7-.39-.25.07-.46.34-.5.72-.01.07,0,.12,0,.17-.22.06-.45.25-.56.56-.29.8.94.4,1.19.16.03-.03.06-.06.06-.09.01-.04,0-.08,0-.12-.05-.14-.11-.25-.18-.33.28-.1.59-.33.68-.47.02-.03.04-.06.04-.1,0-.04-.01-.08-.04-.11Zm-14.13-6.64c.27.33.84.89,1.19.39.15-.22.32-.48.29-.75-.07-.89-1-.08-1.48.36Zm-4.52-2.85c.25.35.77.95,1.15.48.18-.21.36-.44.36-.72,0-.89-1-.15-1.51.24Zm9.22,3.82s-.39-.34-.39-.34c-.35.34-.18.7.19.91.02.01.04.03.06.02.03,0,.04-.03.06-.05.11-.18.2-.34.08-.54Zm-2,.01c-.16.11-.43.44-.54.73-.1.27-.06.51.32.54.15.01.3-.07.41-.16.44-.31.53-1.62-.19-1.11Zm3.17,2.22s-.44-.28-.44-.28c-.3.39-.07.72.32.88.02,0,.05.01.07,0,.02,0,.04-.04.04-.06.08-.2.15-.37,0-.55Z"/>
</svg>