<?xml version="1.0" encoding="UTF-8"?>
<svg id="OBJECTS" xmlns="http://www.w3.org/2000/svg" viewBox="0 0 79 73">
  <defs>
    <style>
      .cls-1 {
        fill: #fffdfe;
      }
    </style>
  </defs>
  <path class="cls-1" d="m39.35,8.35c-14.81.09-26.79,12.2-26.71,27.02.08,14.81,12.2,26.8,27.02,26.72,14.81-.08,26.79-12.2,26.71-27.02-.08-14.81-12.2-26.8-27.02-26.72Zm.28,48.63c-12,.06-21.82-9.64-21.89-21.64-.07-11.99,9.64-21.82,21.63-21.88,12-.07,21.82,9.63,21.89,21.63.07,12-9.64,21.82-21.63,21.89Z"/>
  <g>
    <path class="cls-1" d="m39.5,17.87c-9.58,0-17.34,7.76-17.34,17.34s7.77,17.34,17.34,17.34,17.34-7.77,17.34-17.34-7.76-17.34-17.34-17.34Zm1.5,22.84c-2.07,2.66-5.88,3.44-8.99,2.4-3.29-1.08-5.69-4.4-5.62-7.88-.16-4.3,3.6-8.27,7.9-8.32,2.19-.19,4.32.66,5.99,2.05-.68.75-1.38,1.48-2.12,2.18-1.46-.89-3.22-1.57-4.93-.96-2.76.78-4.42,4.04-3.4,6.73.84,2.81,4.27,4.36,6.95,3.18,1.38-.5,2.3-1.78,2.7-3.16-1.59-.04-3.18-.01-4.77-.06,0-.95,0-1.89,0-2.84,2.65,0,5.31,0,7.97.01.17,2.32-.18,4.8-1.68,6.66Zm9.24-4.29c0,.8,0,1.59-.01,2.39-.79,0-1.58,0-2.37,0-.01-.8-.01-1.59-.02-2.38-.79,0-1.58-.01-2.38-.01v-2.37c.79,0,1.58-.01,2.38-.02,0-.79.01-1.59.02-2.38h2.37c0,.79.01,1.59.01,2.38l2.38.02v2.37c-.79,0-1.59,0-2.38,0Z"/>
    <path class="cls-1" d="m59.58,47.1s-.04-.01-.06-.02c-.86-.26-.56.96-.32,1.31.03.04.06.08.1.1.06.02.11,0,.16-.02.67-.3,1.1-1.01.12-1.37Zm-9.12-32.69c-.18.06-.4.39-.33.6,0,.04.03.06.06.09.25.2.81.36.98-.02.19-.4-.34-.8-.7-.67Zm-10.97,45.75c-.12-.38-.35-.54-.59-.53-.27,0-.53.22-.65.58-.29.8.94.4,1.19.16.03-.02.06-.05.06-.08.01-.04,0-.08,0-.12Zm-9.06-2.78c-.2-.34-.47-.45-.7-.39-.25.07-.46.34-.5.72-.09.84,1.01.17,1.2-.12.02-.03.04-.06.04-.1,0-.04-.01-.08-.04-.11Zm32.85-22.81s-.04-.01-.06-.02c-.86-.26-.57.96-.32,1.31.03.04.06.08.11.1.06.02.11,0,.16-.02.67-.3,1.1-1.01.12-1.37Zm-.09-3.88c-.28-.73-1.44-.13-1.57.41-.01.06,0,.12.01.17.17.34.41.74.86.63.46-.12.87-.75.7-1.2Zm.12,7.93s-.39-.34-.39-.34c-.35.34-.18.69.19.91.02,0,.04.02.07.01.02,0,.04-.03.05-.05.11-.18.2-.34.08-.54Zm-8.89-24.03s-.05,0-.07-.01c-.89-.13-.41,1.04-.12,1.35.04.04.07.08.12.08.06,0,.11-.02.15-.05.62-.39.94-1.17-.08-1.37ZM15.36,27.58c-.18-.35-.43-.48-.67-.44-.25.05-.49.3-.56.67-.16.84.98.25,1.2-.01.02-.03.04-.06.05-.1,0-.04,0-.08-.03-.12Zm39.82-9.43c-.18.04-.46.33-.41.53,0,.04.02.07.04.1.22.25.75.48.97.13.25-.37-.21-.84-.6-.77Zm-7.85-7.73s-.44-.27-.44-.27c-.3.39-.07.71.32.87.02,0,.05.02.07,0,.02,0,.04-.04.05-.06.08-.2.14-.37,0-.55Zm-5.96-1.22c-.18.04-.45.32-.41.53,0,.04.02.07.05.1.22.25.75.48.97.13.24-.37-.22-.85-.6-.77Zm-5.59,49.54c-.2-.34-.46-.45-.7-.39-.25.07-.46.34-.51.72,0,.07,0,.12.01.18-.23.05-.45.25-.56.56-.28.8.94.4,1.2.16.03-.02.05-.05.06-.08.01-.04,0-.08,0-.12-.05-.15-.11-.25-.19-.33.28-.11.59-.34.69-.48.02-.03.04-.06.04-.1,0-.04-.02-.08-.04-.11Zm-14.13-6.64c.28.33.85.89,1.19.39.15-.22.32-.47.3-.75-.07-.89-1-.07-1.48.36Zm-4.51-2.85c.25.35.77.95,1.15.48.18-.21.35-.44.35-.72,0-.89-.99-.15-1.5.24Zm9.22,3.82s-.39-.34-.39-.34c-.35.34-.18.69.19.91.02,0,.05.02.07.02.03,0,.04-.04.06-.06.11-.18.2-.34.08-.54Zm-2,.01c-.16.11-.43.44-.53.73-.1.27-.06.51.32.55.15,0,.29-.08.41-.16.43-.32.53-1.62-.2-1.12Zm3.18,2.22s-.44-.27-.44-.27c-.3.39-.07.71.33.87.02,0,.04.02.06,0,.03,0,.04-.04.05-.06.08-.2.15-.37,0-.55Z"/>
  </g>
</svg>