<?xml version="1.0" encoding="UTF-8"?>
<svg id="OBJECTS" xmlns="http://www.w3.org/2000/svg" viewBox="0 0 79 73">
  <defs>
    <style>
      .cls-1 {
        fill: #fff;
      }
    </style>
  </defs>
  <path d="m41.7,10.54c-14.81.08-26.79,12.2-26.71,27.02.08,14.81,12.2,26.8,27.02,26.72,14.81-.09,26.79-12.2,26.71-27.03-.08-14.81-12.2-26.79-27.02-26.71Zm.28,48.62c-12,.07-21.82-9.63-21.89-21.63-.07-12,9.64-21.82,21.63-21.89,12-.06,21.82,9.64,21.89,21.64.07,11.99-9.64,21.82-21.63,21.88Z"/>
  <path class="cls-1" d="m61.93,49.29s-.04-.02-.06-.03c-.86-.26-.56.97-.32,1.32.03.04.06.08.1.1.06.01.11,0,.16-.03.67-.3,1.1-1.01.12-1.36Zm-9.12-32.69c-.18.06-.4.39-.33.59,0,.04.03.07.06.09.25.21.81.36.98-.01.19-.4-.34-.8-.7-.67Zm-10.97,45.75c-.12-.38-.35-.54-.59-.53-.27,0-.53.22-.65.58-.29.8.94.4,1.19.16.03-.03.06-.05.06-.08.01-.04,0-.08,0-.12Zm-9.06-2.78c-.2-.34-.47-.44-.7-.38-.25.07-.46.34-.5.71-.09.84,1.01.18,1.2-.11.02-.04.04-.06.04-.1,0-.04-.01-.08-.04-.12Zm32.85-22.8s-.04-.02-.06-.03c-.86-.26-.57.97-.32,1.32.03.04.06.08.11.1.06.02.11,0,.16-.03.67-.3,1.1-1.01.12-1.36Zm-.09-3.89c-.28-.72-1.44-.12-1.57.41-.01.06,0,.11.01.16.17.34.41.75.86.63.46-.11.87-.75.7-1.2Zm.12,7.94s-.39-.34-.39-.34c-.35.34-.18.7.19.91.02.01.04.03.07.02.02,0,.04-.03.05-.05.11-.18.2-.34.08-.54Zm-8.89-24.03s-.05-.01-.07-.01c-.89-.13-.41,1.03-.12,1.35.04.04.07.07.12.08.06,0,.11-.02.15-.05.62-.39.94-1.17-.08-1.37Zm-39.06,12.99c-.18-.36-.43-.49-.67-.44-.25.04-.49.3-.56.67-.16.83.98.25,1.2-.02.02-.03.04-.06.05-.09,0-.04,0-.08-.03-.12Zm39.82-9.43c-.18.04-.46.32-.41.53,0,.04.02.07.04.1.22.25.75.48.97.13.25-.37-.21-.85-.6-.77Zm-7.85-7.73s-.44-.27-.44-.27c-.3.39-.07.71.32.88.02,0,.05.01.07,0,.02,0,.04-.04.05-.06.08-.2.14-.37,0-.56Zm-5.96-1.22c-.18.04-.45.33-.41.54,0,.04.02.07.05.1.22.25.75.48.97.13.24-.37-.22-.84-.6-.77Zm-5.59,49.54c-.2-.34-.46-.45-.7-.39-.25.07-.46.34-.51.72,0,.07,0,.12.01.17-.23.06-.45.25-.56.56-.28.8.94.4,1.2.16.03-.03.05-.06.06-.09.01-.04,0-.08,0-.12-.05-.14-.11-.25-.19-.33.28-.1.59-.33.69-.47.02-.03.04-.06.04-.1,0-.04-.02-.08-.04-.11Zm-14.13-6.64c.28.33.85.89,1.19.39.15-.22.32-.48.3-.75-.07-.89-1-.08-1.48.36Zm-4.51-2.85c.25.35.77.95,1.15.48.18-.21.35-.44.35-.72,0-.89-.99-.15-1.5.24Zm9.22,3.82s-.39-.34-.39-.34c-.35.34-.18.7.19.91.02.01.05.03.07.02.03,0,.04-.03.06-.05.11-.18.2-.34.08-.54Zm-2,.01c-.16.11-.43.44-.53.73-.1.27-.06.51.32.54.15.01.29-.07.41-.16.43-.31.53-1.62-.2-1.11Zm3.18,2.22s-.44-.28-.44-.28c-.3.39-.07.72.33.88.02,0,.04.01.06,0,.03,0,.04-.04.05-.06.08-.2.15-.37,0-.55Z"/>
  <g>
    <path d="m46.72,41.58c-2.99-1.84-6.79-2.25-11.16-1.27-.34.11-.63.46-.51.86.11.35.46.63.86.52,4.03-.92,7.42-.58,10.13,1.1.34.22.75.11.98-.23.18-.34.12-.81-.29-.98Z"/>
    <path d="m48.16,38.24c-3.57-2.19-8.75-2.82-12.95-1.55-.46.11-.69.63-.58,1.09.12.46.63.7,1.1.58,3.62-1.15,8.35-.58,11.45,1.33.4.29.92.11,1.21-.29.29-.41.11-.98-.23-1.15Z"/>
    <path d="m49.6,34.38c-4.26-2.53-11-2.76-15.08-1.55-.52.18-.86.75-.69,1.33.17.51.75.86,1.32.69,3.51-1.1,9.67-.86,13.35,1.32.52.29,1.21.12,1.5-.29.29-.51.11-1.21-.4-1.5Z"/>
    <path d="m41.86,20.06c-9.58,0-17.34,7.77-17.34,17.34s7.77,17.34,17.34,17.34,17.34-7.77,17.34-17.34-7.77-17.34-17.34-17.34Zm-.14,28.88c-6.36,0-11.51-5.15-11.51-11.52s5.15-11.51,11.51-11.51,11.51,5.15,11.51,11.51-5.15,11.52-11.51,11.52Z"/>
  </g>
</svg>