<?xml version="1.0" encoding="UTF-8"?>
<svg id="OBJECTS" xmlns="http://www.w3.org/2000/svg" viewBox="0 0 79 73">
  <defs>
    <style>
      .cls-1 {
        fill: #fff;
      }
    </style>
  </defs>
  <path d="m38.9,9.08c-14.81.08-26.79,12.2-26.71,27.02.08,14.81,12.2,26.79,27.02,26.71,14.81-.08,26.79-12.2,26.71-27.02-.08-14.81-12.2-26.79-27.02-26.71Zm.28,48.62c-12,.07-21.82-9.64-21.89-21.64-.07-11.99,9.64-21.81,21.63-21.88,12-.07,21.82,9.64,21.89,21.63.07,12-9.64,21.82-21.63,21.89Z"/>
  <g>
    <path d="m39.05,18.6c-9.58,0-17.34,7.76-17.34,17.34s7.77,17.34,17.34,17.34,17.34-7.77,17.34-17.34-7.76-17.34-17.34-17.34Zm-5.61,26.78h-4.21v-13.55h4.21v13.55Zm-2.1-15.4c-1.35,0-2.44-1.09-2.44-2.44s1.09-2.44,2.44-2.44,2.44,1.09,2.44,2.44-1.1,2.44-2.44,2.44Zm17.87,15.4h-4.21v-6.59c0-1.57-.03-3.59-2.19-3.59s-2.52,1.72-2.52,3.48v6.7h-4.2v-13.55h4.04v1.86h.06c.56-1.07,1.93-2.19,3.98-2.19,4.27,0,5.05,2.81,5.05,6.45v7.43Z"/>
    <path class="cls-1" d="m59.13,47.82s-.04-.01-.06-.02c-.86-.26-.56.96-.32,1.32.03.04.06.08.1.09.06.02.11,0,.16-.02.67-.3,1.1-1.01.12-1.37Zm-9.12-32.69c-.18.06-.4.39-.33.6,0,.04.03.06.06.09.25.21.81.36.98-.01.19-.41-.34-.81-.7-.67Zm-10.97,45.75c-.12-.38-.35-.54-.59-.53-.27,0-.53.22-.65.58-.29.79.94.39,1.19.15.03-.02.06-.05.06-.08.01-.04,0-.08,0-.12Zm-9.06-2.78c-.2-.34-.47-.45-.7-.39-.25.07-.46.34-.5.72-.09.84,1.01.17,1.2-.12.02-.03.04-.06.04-.1,0-.04-.01-.08-.04-.11Zm32.85-22.81s-.04-.01-.06-.02c-.86-.26-.57.96-.32,1.32.03.04.06.08.11.09.06.02.11,0,.16-.02.67-.3,1.1-1.01.12-1.37Zm-.09-3.88c-.28-.72-1.44-.12-1.57.41-.01.06,0,.11.01.16.17.34.41.74.86.63.46-.12.87-.75.7-1.2Zm.12,7.93s-.39-.34-.39-.34c-.35.34-.18.69.19.91.02.01.04.02.07.02.02,0,.04-.04.05-.06.11-.18.2-.34.08-.54Zm-8.89-24.03s-.05,0-.07-.01c-.89-.13-.41,1.04-.12,1.36.04.04.07.07.12.08.06.01.11-.02.15-.05.62-.39.94-1.17-.08-1.37ZM14.91,28.31c-.18-.36-.43-.49-.67-.44-.25.05-.49.3-.56.67-.16.84.98.25,1.2-.01.02-.03.04-.06.05-.1,0-.04,0-.08-.03-.11Zm39.82-9.43c-.18.04-.46.33-.41.54,0,.04.02.06.04.1.22.24.75.47.97.13.25-.37-.21-.84-.6-.77Zm-7.85-7.73s-.44-.27-.44-.27c-.3.39-.07.71.32.87.02,0,.05.02.07.01.02-.01.04-.04.05-.06.08-.2.14-.37,0-.55Zm-5.96-1.22c-.18.04-.45.32-.41.53,0,.04.02.07.05.1.22.25.75.48.97.13.24-.37-.22-.85-.6-.77Zm-5.59,49.54c-.2-.34-.46-.44-.7-.39-.25.07-.46.34-.51.72,0,.08,0,.13.01.18-.23.05-.45.25-.56.56-.28.8.94.4,1.2.16.03-.02.05-.05.06-.08.01-.04,0-.08,0-.12-.05-.15-.11-.25-.19-.33.28-.11.59-.34.69-.48.02-.03.04-.06.04-.1,0-.04-.02-.08-.04-.11Zm-14.13-6.64c.28.33.85.89,1.19.39.15-.22.32-.47.3-.75-.07-.89-1-.07-1.48.36Zm-4.51-2.85c.25.35.77.96,1.15.49.18-.22.35-.45.35-.72,0-.89-.99-.15-1.5.24Zm9.22,3.82s-.39-.34-.39-.34c-.35.34-.18.69.19.91.02.01.05.02.07.02.03,0,.04-.04.06-.06.11-.18.2-.34.08-.54Zm-2,.01c-.16.11-.43.44-.53.73-.1.27-.06.52.32.55.15,0,.29-.08.41-.16.43-.32.53-1.62-.2-1.12Zm3.18,2.22s-.44-.27-.44-.27c-.3.39-.07.71.33.87.02.01.04.02.06.01.03-.01.04-.04.05-.06.08-.2.15-.37,0-.55Z"/>
  </g>
</svg>