<?xml version="1.0" encoding="UTF-8"?>
<svg id="OBJECTS" xmlns="http://www.w3.org/2000/svg" viewBox="0 0 79 73">
  <defs>
    <style>
      .cls-1 {
        fill: #fffdfe;
      }
    </style>
  </defs>
  <path class="cls-1" d="m39.96,9.07c-14.81.09-26.8,12.2-26.71,27.02.08,14.81,12.2,26.8,27.01,26.72,14.81-.08,26.8-12.2,26.72-27.02-.08-14.81-12.2-26.8-27.02-26.72Zm.27,48.63c-11.99.06-21.82-9.64-21.88-21.64-.07-11.99,9.63-21.82,21.63-21.88,12-.07,21.82,9.63,21.89,21.63.06,12-9.64,21.82-21.64,21.89Z"/>
  <g>
    <path class="cls-1" d="m40.12,18.6c-9.58,0-17.34,7.76-17.34,17.34s7.76,17.34,17.34,17.34,17.34-7.77,17.34-17.34-7.77-17.34-17.34-17.34Zm5.51,9.58h-2.61c-.91,0-1.1.38-1.1,1.33v2.3h3.71l-.36,4.03h-3.35v12.04h-4.81v-11.99h-2.5v-4.08h2.5v-3.22c0-3.02,1.61-4.59,5.19-4.59h3.33v4.18Z"/>
    <path class="cls-1" d="m60.2,47.83s-.05-.01-.07-.02c-.86-.26-.56.96-.32,1.31.03.04.06.08.11.1.05.02.11,0,.15-.02.67-.3,1.1-1.01.13-1.37Zm-9.13-32.69c-.17.06-.4.39-.33.6.01.04.04.06.06.09.25.2.81.36.98-.02.18-.4-.34-.8-.71-.67Zm-10.97,45.75c-.13-.38-.36-.54-.6-.53-.26,0-.53.22-.65.58-.28.8.94.4,1.2.16.03-.02.05-.05.06-.08.01-.04,0-.08,0-.12Zm-9.06-2.78c-.2-.34-.47-.45-.7-.39-.25.07-.46.34-.51.72-.09.84,1.01.17,1.2-.12.02-.03.04-.06.04-.1,0-.04-.02-.08-.04-.11Zm32.85-22.81s-.05-.01-.07-.02c-.86-.26-.56.96-.32,1.31.03.04.06.08.11.1.05.02.11,0,.15-.02.67-.3,1.1-1.01.13-1.37Zm-.1-3.88c-.28-.73-1.43-.13-1.56.41-.01.06-.01.12.01.17.16.34.41.74.86.63.45-.12.86-.75.69-1.2Zm.13,7.93s-.39-.34-.39-.34c-.35.34-.18.69.19.91.02,0,.04.02.06.01.03,0,.04-.03.06-.05.11-.18.2-.34.08-.54Zm-8.89-24.03s-.05,0-.07-.01c-.89-.13-.41,1.04-.12,1.35.04.04.07.08.12.08s.11-.02.15-.05c.62-.39.94-1.17-.08-1.37ZM15.98,28.31c-.18-.35-.44-.48-.67-.44-.26.05-.49.3-.56.67-.16.84.99.25,1.2-.01.03-.03.05-.06.05-.1,0-.04,0-.08-.02-.12Zm39.81-9.43c-.18.04-.45.33-.41.53,0,.04.02.07.05.1.22.25.75.48.97.13.24-.37-.22-.84-.6-.77Zm-7.85-7.73s-.44-.27-.44-.27c-.3.39-.08.71.32.87.02,0,.04.02.06,0,.03,0,.04-.04.05-.06.08-.2.15-.37,0-.55Zm-5.95-1.22c-.18.04-.46.32-.41.53,0,.04.02.07.04.1.22.25.75.48.97.13.25-.37-.21-.85-.6-.77Zm-5.59,49.54c-.2-.34-.47-.45-.7-.39-.25.07-.46.34-.51.72,0,.07,0,.12.01.18-.23.05-.45.25-.56.56-.29.8.94.4,1.19.16.03-.02.06-.05.07-.08,0-.04,0-.08-.01-.12-.04-.15-.11-.25-.18-.33.28-.11.59-.34.68-.48.02-.03.04-.06.04-.1,0-.04-.01-.08-.04-.11Zm-14.13-6.64c.27.33.84.89,1.19.39.15-.22.32-.47.3-.75-.08-.89-1.01-.07-1.48.36Zm-4.51-2.85c.25.35.77.95,1.15.48.17-.21.35-.44.35-.72,0-.89-.99-.15-1.5.24Zm9.22,3.82s-.39-.34-.39-.34c-.35.34-.18.69.19.91.02,0,.04.02.06.02.03,0,.04-.04.06-.06.11-.18.2-.34.08-.54Zm-2,.01c-.16.11-.43.44-.53.73-.11.27-.07.51.31.55.15,0,.3-.08.42-.16.43-.32.52-1.62-.2-1.12Zm3.18,2.22s-.44-.27-.44-.27c-.3.39-.07.71.32.87.02,0,.05.02.07,0,.02,0,.04-.04.05-.06.08-.2.14-.37,0-.55Z"/>
  </g>
</svg>