<?xml version="1.0" encoding="UTF-8"?>
<svg id="OBJECTS" xmlns="http://www.w3.org/2000/svg" viewBox="0 0 79 73">
  <defs>
    <style>
      .cls-1 {
        fill: #fff;
      }
    </style>
  </defs>
  <path d="m39.35,9.83c-14.81.08-26.8,12.2-26.72,27.02s12.2,26.79,27.02,26.71c14.81-.08,26.8-12.2,26.72-27.02s-12.2-26.79-27.02-26.71Zm.27,48.62c-11.99.07-21.82-9.64-21.89-21.64-.06-11.99,9.64-21.81,21.64-21.88,11.99-.07,21.82,9.64,21.88,21.63.07,12-9.63,21.82-21.63,21.89Z"/>
  <g>
    <path d="m39.5,19.35c-9.58,0-17.34,7.76-17.34,17.34s7.76,17.34,17.34,17.34,17.34-7.77,17.34-17.34-7.76-17.34-17.34-17.34Zm2.02,23.15c-1.62,0-3.14-.87-3.66-1.86,0,0-.87,3.45-1.05,4.12-.65,2.36-2.56,4.71-2.71,4.91-.11.13-.33.09-.36-.09-.04-.3-.53-3.27.05-5.69.29-1.22,1.93-8.17,1.93-8.17,0,0-.48-.96-.48-2.37,0-2.22,1.29-3.88,2.89-3.88,1.36,0,2.02,1.03,2.02,2.25,0,1.37-.87,3.42-1.33,5.32-.37,1.59.8,2.88,2.37,2.88,2.84,0,4.75-3.64,4.75-7.97,0-3.29-2.21-5.74-6.24-5.74-4.55,0-7.38,3.39-7.38,7.18,0,1.31.39,2.23.99,2.94.27.33.32.46.21.84-.07.27-.23.94-.3,1.2-.1.38-.41.51-.75.37-2.1-.85-3.07-3.14-3.07-5.72,0-4.26,3.59-9.36,10.71-9.36,5.73,0,9.49,4.14,9.49,8.58,0,5.88-3.27,10.27-8.09,10.27Z"/>
    <path class="cls-1" d="m59.58,48.58s-.05-.01-.07-.02c-.86-.26-.56.96-.32,1.32.03.04.06.08.11.09.05.02.11,0,.15-.02.67-.3,1.1-1.01.13-1.37Zm-9.13-32.69c-.18.06-.4.39-.33.6.01.04.03.06.06.09.25.21.8.36.98-.01.18-.41-.34-.81-.71-.67Zm-10.97,45.75c-.12-.38-.35-.54-.59-.53-.26,0-.53.22-.65.58-.28.79.94.39,1.2.15.02-.02.05-.05.06-.08,0-.04,0-.08-.01-.12Zm-9.06-2.78c-.2-.34-.46-.45-.7-.39-.25.07-.46.34-.51.72-.09.84,1.01.17,1.2-.12.01-.03.04-.06.04-.1,0-.04-.02-.08-.04-.11Zm32.86-22.81s-.05-.01-.07-.02c-.86-.26-.56.96-.32,1.32.03.04.06.08.11.09.05.02.11,0,.15-.02.67-.3,1.1-1.01.13-1.37Zm-.1-3.88c-.28-.72-1.44-.12-1.57.41-.01.06,0,.11.02.16.16.34.41.74.86.63.45-.12.86-.75.69-1.2Zm.12,7.93s-.39-.34-.39-.34c-.35.34-.18.69.19.91.02.01.05.02.07.02.03,0,.04-.04.06-.06.11-.18.2-.34.08-.54Zm-8.89-24.03s-.04,0-.07-.01c-.89-.13-.41,1.04-.11,1.36.03.04.07.07.11.08.06.01.11-.02.15-.05.62-.39.94-1.17-.08-1.37ZM15.36,29.07c-.18-.36-.43-.49-.66-.44-.26.05-.49.3-.56.67-.16.84.98.25,1.2-.01.02-.03.04-.06.05-.1,0-.04,0-.08-.03-.11Zm39.82-9.43c-.18.04-.45.33-.41.54,0,.04.02.06.05.1.22.24.75.47.97.13.24-.37-.22-.84-.6-.77Zm-7.85-7.73s-.44-.27-.44-.27c-.3.39-.07.71.32.87.03,0,.05.02.07.01.03-.01.04-.04.05-.06.08-.2.15-.37,0-.55Zm-5.95-1.22c-.18.04-.46.32-.42.53,0,.04.03.07.05.1.22.25.75.48.97.13.25-.37-.21-.85-.6-.77Zm-5.59,49.54c-.2-.34-.47-.44-.7-.39-.25.07-.46.34-.5.72-.01.08,0,.13,0,.18-.22.05-.45.25-.56.56-.29.8.94.4,1.19.16.03-.02.06-.05.06-.08.01-.04,0-.08,0-.12-.05-.15-.11-.25-.18-.33.28-.11.59-.34.68-.48.02-.03.04-.06.04-.1s-.01-.08-.04-.11Zm-14.13-6.64c.27.33.84.89,1.19.39.15-.22.32-.47.29-.75-.07-.89-1-.07-1.48.36Zm-4.52-2.85c.25.35.77.96,1.15.49.18-.22.36-.45.36-.72,0-.89-1-.15-1.51.24Zm9.22,3.82s-.39-.34-.39-.34c-.35.34-.18.69.19.91.02.01.04.02.06.02.03,0,.04-.04.06-.06.11-.18.2-.34.08-.54Zm-2,.01c-.16.11-.43.44-.54.73-.1.27-.06.52.32.55.15,0,.3-.08.41-.16.44-.32.53-1.62-.19-1.12Zm3.17,2.22s-.44-.27-.44-.27c-.3.39-.07.71.32.87.02.01.05.02.07.01.02-.01.04-.04.04-.06.08-.2.15-.37,0-.55Z"/>
  </g>
</svg>