<?xml version="1.0" encoding="UTF-8"?>
<svg id="OBJECTS" xmlns="http://www.w3.org/2000/svg" viewBox="0 0 79 73">
  <defs>
    <style>
      .cls-1 {
        fill: #fffdfe;
      }
    </style>
  </defs>
  <path class="cls-1" d="m39.79,7.04c-14.81.09-26.8,12.2-26.72,27.02.08,14.81,12.2,26.8,27.02,26.72,14.81-.08,26.8-12.2,26.72-27.02S54.61,6.96,39.79,7.04Zm.27,48.63c-11.99.06-21.82-9.64-21.89-21.64-.06-11.99,9.64-21.82,21.64-21.88,11.99-.07,21.82,9.63,21.88,21.63.07,12-9.63,21.82-21.63,21.89Z"/>
  <g>
    <path class="cls-1" d="m39.94,16.57c-9.58,0-17.34,7.76-17.34,17.34s7.76,17.34,17.34,17.34,17.34-7.77,17.34-17.34-7.76-17.34-17.34-17.34Zm8.55,12.96c.28,6.2-4.34,13.12-12.54,13.12-2.49,0-4.81-.73-6.76-1.98,2.34.27,4.68-.37,6.52-1.83-1.93-.04-3.56-1.31-4.11-3.06.69.13,1.36.09,1.99-.08-2.12-.43-3.59-2.33-3.54-4.38.59.33,1.27.53,2,.56-1.97-1.31-2.52-3.91-1.36-5.89,2.17,2.67,5.42,4.42,9.08,4.61-.64-2.76,1.46-5.42,4.3-5.42,1.27,0,2.42.53,3.22,1.39,1.01-.2,1.95-.56,2.81-1.07-.33,1.03-1.03,1.9-1.94,2.44.89-.11,1.74-.34,2.53-.7-.59.89-1.34,1.67-2.2,2.28Z"/>
    <path class="cls-1" d="m60.03,45.8s-.05-.01-.07-.02c-.86-.26-.56.96-.32,1.31.03.04.06.08.11.1.05.02.11,0,.15-.02.67-.3,1.1-1.01.13-1.37Zm-9.13-32.69c-.18.06-.4.39-.33.6.01.04.03.06.06.09.25.2.8.36.98-.02.18-.4-.34-.8-.71-.67Zm-10.97,45.75c-.12-.38-.35-.54-.59-.53-.26,0-.53.22-.65.58-.28.8.94.4,1.2.16.02-.02.05-.05.06-.08,0-.04,0-.08-.01-.12Zm-9.06-2.78c-.2-.34-.46-.45-.7-.39-.25.07-.46.34-.51.72-.09.84,1.01.17,1.2-.12.01-.03.04-.06.04-.1,0-.04-.02-.08-.04-.11Zm32.86-22.81s-.05-.01-.07-.02c-.86-.26-.56.96-.32,1.31.03.04.06.08.11.1.05.02.11,0,.15-.02.67-.3,1.1-1.01.13-1.37Zm-.1-3.88c-.28-.73-1.44-.13-1.57.41-.01.06,0,.12.02.17.16.34.41.74.86.63.45-.12.86-.75.69-1.2Zm.12,7.93s-.39-.34-.39-.34c-.35.34-.18.69.19.91.02,0,.05.02.07.01.03,0,.04-.03.06-.05.11-.18.2-.34.08-.54Zm-8.89-24.03s-.04,0-.07-.01c-.89-.13-.41,1.04-.11,1.35.03.04.07.08.11.08.06,0,.11-.02.15-.05.62-.39.94-1.17-.08-1.37ZM15.81,26.28c-.18-.35-.43-.48-.66-.44-.26.05-.49.3-.56.67-.16.84.98.25,1.2-.01.02-.03.04-.06.05-.1,0-.04,0-.08-.03-.12Zm39.82-9.43c-.18.04-.45.33-.41.53,0,.04.02.07.05.1.22.25.75.48.97.13.24-.37-.22-.84-.6-.77Zm-7.85-7.73s-.44-.27-.44-.27c-.3.39-.07.71.32.87.03,0,.05.02.07,0,.03,0,.04-.04.05-.06.08-.2.15-.37,0-.55Zm-5.95-1.22c-.18.04-.46.32-.42.53,0,.04.03.07.05.1.22.25.75.48.97.13.25-.37-.21-.85-.6-.77Zm-5.59,49.54c-.2-.34-.47-.45-.7-.39-.25.07-.46.34-.5.72-.01.07,0,.12,0,.18-.22.05-.45.25-.56.56-.29.8.94.4,1.19.16.03-.02.06-.05.06-.08.01-.04,0-.08,0-.12-.05-.15-.11-.25-.18-.33.28-.11.59-.34.68-.48.02-.03.04-.06.04-.1,0-.04-.01-.08-.04-.11Zm-14.13-6.64c.27.33.84.89,1.19.39.15-.22.32-.47.29-.75-.07-.89-1-.07-1.48.36Zm-4.52-2.85c.25.35.77.95,1.15.48.18-.21.36-.44.36-.72,0-.89-1-.15-1.51.24Zm9.22,3.82s-.39-.34-.39-.34c-.35.34-.18.69.19.91.02,0,.04.02.06.02.03,0,.04-.04.06-.06.11-.18.2-.34.08-.54Zm-2,.01c-.16.11-.43.44-.54.73-.1.27-.06.51.32.55.15,0,.3-.08.41-.16.44-.32.53-1.62-.19-1.12Zm3.17,2.22s-.44-.27-.44-.27c-.3.39-.07.71.32.87.02,0,.05.02.07,0,.02,0,.04-.04.04-.06.08-.2.15-.37,0-.55Z"/>
  </g>
</svg>