<?xml version="1.0" encoding="UTF-8"?>
<svg id="Layer_1" data-name="Layer 1" xmlns="http://www.w3.org/2000/svg" viewBox="0 0 61.07 69.12">
  <defs>
    <style>
      .cls-1 {
        fill: #ed1c2a;
      }

      .cls-2 {
        fill: #231f20;
      }
    </style>
  </defs>
  <path class="cls-2" d="m55.59,17.08c-2.72-4.75-6.56-8.44-11.52-11.08-4.97-2.63-10.77-3.94-17.4-3.94H3.08v62.96h23.59c6.57,0,12.36-1.31,17.35-3.95,4.99-2.63,8.85-6.33,11.57-11.12,2.72-4.78,4.08-10.25,4.08-16.41s-1.36-11.71-4.08-16.46Zm-16.37,29.91c-3.22,3.17-7.74,4.76-13.54,4.76h-7.26V15.15h7.26c5.8,0,10.32,1.62,13.54,4.85,3.23,3.22,4.85,7.74,4.85,13.54s-1.62,10.28-4.85,13.45Z"/>
  <rect class="cls-1" x="3.08" y="51.75" width="15.34" height="13.27"/>
</svg>