<?xml version="1.0" encoding="UTF-8"?>
<svg id="Layer_1" data-name="Layer 1" xmlns="http://www.w3.org/2000/svg" xmlns:xlink="http://www.w3.org/1999/xlink" viewBox="0 0 50 50">
  <defs>
    <style>
      .cls-1 {
        fill: url(#linear-gradient);
      }

      .cls-1, .cls-2, .cls-3 {
        fill-rule: evenodd;
      }

      .cls-2 {
        fill: url(#linear-gradient-3);
      }

      .cls-3 {
        fill: url(#linear-gradient-2);
      }
    </style>
    <linearGradient id="linear-gradient" x1="-130.63" y1="-141.43" x2="75.32" y2="81.69" gradientUnits="userSpaceOnUse">
      <stop offset=".21" stop-color="#a59d60"/>
      <stop offset=".41" stop-color="#ccc17d"/>
      <stop offset=".54" stop-color="#eadd94"/>
      <stop offset=".81" stop-color="#a59d60"/>
    </linearGradient>
    <linearGradient id="linear-gradient-2" x1="-130.61" y1="-141.4" x2="-9.24" y2="-9.93" gradientUnits="userSpaceOnUse">
      <stop offset=".21" stop-color="#a59d60"/>
      <stop offset=".23" stop-color="#ada466"/>
      <stop offset=".31" stop-color="#c7bd7a"/>
      <stop offset=".38" stop-color="#dacf88"/>
      <stop offset=".46" stop-color="#e6d991"/>
      <stop offset=".54" stop-color="#eadd94"/>
      <stop offset="1" stop-color="#a59d60"/>
    </linearGradient>
    <linearGradient id="linear-gradient-3" x1="-130.54" y1="-141.46" x2="-9.18" y2="-9.99" xlink:href="#linear-gradient-2"/>
  </defs>
  <path class="cls-1" d="m24.87,23.8c-1.82,0-3.3,1.45-3.3,3.23s1.48,3.23,3.3,3.23,3.3-1.45,3.3-3.23-1.48-3.23-3.3-3.23Z"/>
  <path class="cls-3" d="m28.82,18.63h-7.91c-2.55,0-4.62,2.03-4.62,4.52v7.75c0,2.49,2.07,4.52,4.62,4.52h7.91c2.55,0,4.62-2.03,4.62-4.52v-7.75c0-2.49-2.07-4.52-4.62-4.52Zm-3.96,13.57c-2.91,0-5.28-2.31-5.28-5.17s2.36-5.17,5.28-5.17,5.28,2.31,5.28,5.17-2.36,5.17-5.28,5.17Zm5.67-10.04c-.39,0-.7-.31-.7-.69s.32-.69.7-.69.7.31.7.69-.31.69-.7.69Z"/>
  <path class="cls-2" d="m25.2,7.44c-11.14,0-20.17,8.87-20.17,19.81s9.03,19.81,20.17,19.81,20.17-8.87,20.17-19.81S36.33,7.44,25.2,7.44Zm10.22,23.46c0,3.57-2.95,6.46-6.59,6.46h-7.91c-3.64,0-6.59-2.89-6.59-6.46v-7.75c0-3.57,2.95-6.46,6.59-6.46h7.91c3.64,0,6.59,2.89,6.59,6.46v7.75Z"/>
</svg>