<?xml version="1.0" encoding="UTF-8"?>
<svg id="Layer_1" data-name="Layer 1" xmlns="http://www.w3.org/2000/svg" xmlns:xlink="http://www.w3.org/1999/xlink" viewBox="0 0 50 50">
  <defs>
    <style>
      .cls-1 {
        fill: url(#linear-gradient);
      }
    </style>
    <linearGradient id="linear-gradient" x1="-9.74" y1="-7.35" x2="111.62" y2="124.12" gradientUnits="userSpaceOnUse">
      <stop offset=".11" stop-color="#a59d60"/>
      <stop offset=".13" stop-color="#ada466"/>
      <stop offset=".17" stop-color="#c7bd7a"/>
      <stop offset=".23" stop-color="#dacf88"/>
      <stop offset=".28" stop-color="#e6d991"/>
      <stop offset=".33" stop-color="#eadd94"/>
      <stop offset=".66" stop-color="#a59d60"/>
    </linearGradient>
  </defs>
  <path class="cls-1" d="m20.52,17.21c2.15-2.5-.19-5.77-1.63-8.01-.81-1.29-2.01-3.13-3.69-3.36-1.6-.17-3.05,1.6-4.1,2.58-2.54,2.31-3.95,5.31-4.1,8.74.02.39.02,1.03-.04.45.25,2.06.49,4.01,1.21,5.96.66,1.84,1.59,3.54,2.64,5.17,2.27,3.43,4.9,6.75,8.02,9.5,3.04,2.7,6.46,5.12,10.51,5.99,3.8.77,7.51-.03,10.51-2.5,1.08-.89,3.08-2.18,3.17-3.71.08-1.55-1.15-2.79-2.21-3.72-2.26-2.02-5.59-5.39-8.66-2.93-1.2.98-2.47,2.8-4.07,3.06-1.59.26-3.13-.89-4.28-1.81-2.57-2.1-5.08-4.95-6.61-7.93-.64-1.33-1.21-3.03-.27-4.35.96-1.29,2.56-1.91,3.59-3.13Z"/>
</svg>