<?xml version="1.0" encoding="UTF-8"?>
<svg id="Layer_1" data-name="Layer 1" xmlns="http://www.w3.org/2000/svg" xmlns:xlink="http://www.w3.org/1999/xlink" viewBox="0 0 50 50">
  <defs>
    <style>
      .cls-1 {
        fill: url(#linear-gradient);
        fill-rule: evenodd;
      }
    </style>
    <linearGradient id="linear-gradient" x1="-55.23" y1="-60.72" x2="66.13" y2="70.75" gradientUnits="userSpaceOnUse">
      <stop offset=".21" stop-color="#a59d60"/>
      <stop offset=".23" stop-color="#ada466"/>
      <stop offset=".31" stop-color="#c7bd7a"/>
      <stop offset=".38" stop-color="#dacf88"/>
      <stop offset=".46" stop-color="#e6d991"/>
      <stop offset=".54" stop-color="#eadd94"/>
      <stop offset="1" stop-color="#a59d60"/>
    </linearGradient>
  </defs>
  <path class="cls-1" d="m24.88,5.83C13.52,5.83,4.31,14.88,4.31,26.06s9.21,20.23,20.57,20.23,20.57-9.06,20.57-20.23S36.24,5.83,24.88,5.83Zm10.76,14.74c.01.23.02.45.02.69,0,7.03-5.62,15.14-15.91,15.14-3.16,0-6.1-.87-8.57-2.39.44.05.88.07,1.34.07,2.61,0,5.03-.85,6.93-2.27-2.44-.05-4.5-1.6-5.22-3.71.34.07.7.09,1.06.09.51,0,1.01-.06,1.47-.18-2.54-.49-4.48-2.64-4.48-5.23v-.06c.75.39,1.63.64,2.53.66-1.49-.95-2.48-2.58-2.48-4.42,0-.98.28-1.89.77-2.69,2.76,3.23,6.87,5.35,11.52,5.57-.09-.39-.13-.79-.13-1.21,0-2.93,2.49-5.32,5.59-5.32,1.59,0,3.06.64,4.08,1.68,1.27-.24,2.46-.67,3.54-1.29-.42,1.25-1.3,2.28-2.46,2.94,1.13-.14,2.21-.42,3.22-.84-.76,1.08-1.69,2.01-2.8,2.76Z"/>
</svg>