<?xml version="1.0" encoding="utf-8"?>
<!-- Generator: Adobe Illustrator 27.6.1, SVG Export Plug-In . SVG Version: 6.00 Build 0)  -->
<svg version="1.1" id="Layer_1" xmlns="http://www.w3.org/2000/svg" xmlns:xlink="http://www.w3.org/1999/xlink" x="0px" y="0px"
	 viewBox="0 0 2220.3 2495.8" style="enable-background:new 0 0 2220.3 2495.8;" xml:space="preserve">
<style type="text/css">
	.st0{fill:none;}
	.st1{fill:#1ABCFE;}
	.st2{fill:#0ACF83;}
	.st3{fill:#FF7262;}
	.st4{fill:#F24E1E;}
	.st5{fill:#A259FF;}
</style>
<path class="st0" d="M336.2,87.7h1547.8V2409H336.2V87.7z"/>
<path class="st1" d="M1109.7,1248.4c0-213.3,173-387.2,387.2-387.2c213.3,0,387.2,173,387.2,387.2c0,213.3-173,387.2-387.2,387.2
	C1283.5,1635.5,1109.7,1461.7,1109.7,1248.4L1109.7,1248.4z"/>
<path class="st2" d="M336.2,2021.8c0-213.3,173-387.2,387.2-387.2h387.2v387.2c0,213.3-173,387.2-387.2,387.2
	S336.2,2236,336.2,2021.8L336.2,2021.8z"/>
<path class="st3" d="M1109.7,87.7v773.5h387.2c213.3,0,387.2-173,387.2-387.2c0-213.3-173-387.2-387.2-387.2h-387.2V87.7z"/>
<path class="st4" d="M336.2,474.9c0,213.3,173,387.2,387.2,387.2h387.2V87.7H723.4C509.2,87.7,336.2,260.7,336.2,474.9z"/>
<path class="st5" d="M336.2,1248.4c0,213.3,173,387.2,387.2,387.2h387.2V861.2H723.4C509.2,861.2,336.2,1035,336.2,1248.4z"/>
</svg>
