<?xml version="1.0" encoding="UTF-8"?>
<svg id="Layer_1" data-name="Layer 1" xmlns="http://www.w3.org/2000/svg" xmlns:xlink="http://www.w3.org/1999/xlink" viewBox="0 0 142.55 119.68">
  <defs>
    <style>
      .cls-1 {
        fill: url(#linear-gradient);
      }

      .cls-2 {
        fill: #a59d60;
      }

      .cls-3 {
        fill: url(#linear-gradient-3);
      }

      .cls-4 {
        fill: url(#linear-gradient-2);
      }
    </style>
    <linearGradient id="linear-gradient" x1="13.5" y1="111.06" x2="128.2" y2="111.06" gradientUnits="userSpaceOnUse">
      <stop offset=".21" stop-color="#a59d60"/>
      <stop offset=".23" stop-color="#ada466"/>
      <stop offset=".31" stop-color="#c7bd7a"/>
      <stop offset=".38" stop-color="#dacf88"/>
      <stop offset=".46" stop-color="#e6d991"/>
      <stop offset=".54" stop-color="#eadd94"/>
      <stop offset="1" stop-color="#a59d60"/>
    </linearGradient>
    <linearGradient id="linear-gradient-2" x1="41.21" y1="68.7" x2="100.27" y2="9.64" xlink:href="#linear-gradient"/>
    <linearGradient id="linear-gradient-3" x1="51.04" x2="90.43" xlink:href="#linear-gradient"/>
  </defs>
  <rect class="cls-1" x="13.5" y="110.59" width="114.7" height=".94"/>
  <g>
    <path d="m21.81,94.83h-4.08v-13.91c0-.11-.04-.21-.12-.29-.08-.08-.17-.12-.29-.12h-2.25c-.27,0-.4.13-.4.4v13.91h-4.08v-13.91c0-.11-.04-.21-.12-.29-.08-.08-.17-.12-.29-.12h-2.25c-.11,0-.21.04-.29.12-.08.08-.12.17-.12.29v13.91H3.43v-14.31c0-1.13.4-2.1,1.19-2.89.79-.79,1.76-1.19,2.89-1.19h3.06c.42,0,.82.06,1.19.18.37.12.65.31.85.56.18-.23.47-.41.86-.54.39-.13.79-.2,1.2-.2h3.06c1.13,0,2.1.4,2.89,1.19.79.79,1.19,1.76,1.19,2.89v14.31Z"/>
    <path d="m44.2,76.43l-7.87,16.86c-.28.6-.69,1.05-1.21,1.36-.52.31-1.13.47-1.81.47s-1.3-.15-1.82-.45c-.52-.3-.92-.76-1.2-1.38l-7.85-16.86h4.7l5.81,12.42c.07.17.19.26.36.26.2,0,.32-.09.36-.26l5.83-12.42h4.7Z"/>
    <path d="m62.85,94.83h-14.31c-1.13,0-2.1-.4-2.89-1.19-.79-.79-1.19-1.76-1.19-2.89v-10.23c0-1.13.4-2.1,1.19-2.89.79-.79,1.76-1.19,2.89-1.19h14.31v4.08h-13.91c-.11,0-.21.04-.29.12-.08.08-.12.17-.12.29v2.66h14.31v4.08h-14.31v2.66c0,.13.04.23.12.31.08.08.17.12.29.12h13.91v4.08Z"/>
    <path d="m80.4,94.83h-12.27c-1.13,0-2.1-.4-2.89-1.19-.79-.79-1.19-1.76-1.19-2.89v-14.31h4.08v13.89c0,.13.04.23.12.31.08.08.17.12.29.12h11.87v4.08Z"/>
    <path d="m100.33,94.83h-14.83l1.93-4.08h6.52l-3.91-8.36c-.09-.16-.21-.23-.36-.23-.2,0-.33.08-.38.23l-5.81,12.44h-4.49l7.85-16.84c.57-1.23,1.51-1.85,2.83-1.85s2.24.62,2.81,1.85l7.85,16.84Z"/>
    <path d="m119.24,90.75c0,1.11-.4,2.06-1.19,2.87-.79.81-1.76,1.21-2.89,1.21h-14.31v-4.08h13.91c.27,0,.4-.14.4-.43v-2.23c0-.13-.04-.23-.12-.31-.08-.08-.17-.12-.29-.12h-9.83c-1.13,0-2.1-.4-2.89-1.19-.79-.79-1.19-1.76-1.19-2.89v-3.06c0-1.13.4-2.1,1.19-2.89s1.76-1.19,2.89-1.19h14.31v4.08h-13.91c-.11,0-.21.04-.29.12s-.12.17-.12.29v2.25c0,.11.04.21.12.29.08.08.17.12.29.12h9.83c1.13,0,2.1.4,2.89,1.19.79.79,1.19,1.76,1.19,2.89v3.08Z"/>
    <path d="m139.27,94.83h-14.31c-1.13,0-2.1-.4-2.89-1.19-.79-.79-1.19-1.76-1.19-2.89v-10.23c0-1.13.4-2.1,1.19-2.89.79-.79,1.76-1.19,2.89-1.19h14.31v4.08h-13.91c-.11,0-.21.04-.29.12-.08.08-.12.17-.12.29v2.66h14.31v4.08h-14.31v2.66c0,.13.04.23.12.31.08.08.17.12.29.12h13.91v4.08Z"/>
  </g>
  <g>
    <path class="cls-2" d="m13.49,105.12v-6.87h1.29l3.24,4.15,3.17-4.15h1.28v6.87h-1.48v-4.25c0-.08,0-.19.02-.31.01-.13.02-.27.04-.42-.09.18-.16.32-.23.44-.07.11-.12.21-.18.28l-2.58,3.43h-.32l-2.59-3.45c-.1-.13-.18-.25-.24-.37-.07-.11-.12-.23-.17-.33.01.14.02.27.03.39,0,.12,0,.23,0,.34v4.25h-1.29Z"/>
    <path class="cls-2" d="m25.83,105.12v-6.87h1.6v6.87h-1.6Z"/>
    <path class="cls-2" d="m30.93,105.12v-6.87h1.09l4.84,4.05c.16.13.31.26.44.38.13.12.24.24.34.37-.03-.39-.04-.66-.05-.82,0-.16-.01-.28-.01-.37v-3.61h1.44v6.87h-1.09l-5.05-4.25c-.12-.11-.23-.21-.32-.29-.09-.09-.18-.18-.25-.27.02.21.04.41.05.6.01.19.02.35.02.49v3.71h-1.44Z"/>
    <path class="cls-2" d="m42.51,105.12v-6.87h1.6v6.87h-1.6Z"/>
    <path class="cls-2" d="m47.61,105.12v-6.87h1.09l4.84,4.05c.16.13.31.26.44.38.13.12.24.24.34.37-.03-.39-.04-.66-.05-.82,0-.16-.01-.28-.01-.37v-3.61h1.44v6.87h-1.09l-5.05-4.25c-.12-.11-.23-.21-.32-.29-.09-.09-.18-.18-.25-.27.02.21.04.41.05.6.01.19.02.35.02.49v3.71h-1.44Z"/>
    <path class="cls-2" d="m65.65,99.47h-4.99v4.35h4.99v-1.53h-2.61v-1.17h4.17v2.37c0,.63-.12,1.06-.35,1.28s-.68.34-1.35.34h-4.74c-.67,0-1.12-.11-1.35-.34s-.35-.66-.35-1.28v-3.62c0-.62.12-1.05.35-1.28s.68-.34,1.35-.34h4.74c.66,0,1.11.11,1.35.34.24.23.36.63.36,1.22v.16l-1.55.28v-.77Z"/>
    <path class="cls-2" d="m82.19,99.47h-4.99v4.35h4.99v-1.53h-2.61v-1.17h4.17v2.37c0,.63-.12,1.06-.35,1.28s-.68.34-1.35.34h-4.74c-.67,0-1.12-.11-1.35-.34s-.35-.66-.35-1.28v-3.62c0-.62.12-1.05.35-1.28s.68-.34,1.35-.34h4.74c.66,0,1.11.11,1.35.34.24.23.36.63.36,1.22v.16l-1.55.28v-.77Z"/>
    <path class="cls-2" d="m87.12,105.12v-6.87h5.88c.55,0,.94.11,1.19.32.24.21.37.55.37,1.02v1.61c0,.46-.12.8-.37,1.01-.25.21-.64.32-1.19.32h-.9l3.17,2.59h-2.3l-2.77-2.59h-1.51v2.59h-1.57Zm5.17-5.68h-3.6v1.91h3.6c.28,0,.47-.04.57-.12.1-.08.15-.22.15-.43v-.83c0-.2-.05-.34-.15-.42-.1-.08-.29-.12-.57-.12Z"/>
    <path class="cls-2" d="m97.66,99.87c0-.62.12-1.05.35-1.28s.68-.34,1.35-.34h5.06c.67,0,1.12.11,1.35.34s.35.66.35,1.28v3.62c0,.63-.12,1.06-.35,1.28s-.69.34-1.35.34h-5.06c-.67,0-1.12-.11-1.35-.34s-.35-.66-.35-1.28v-3.62Zm1.6,3.95h5.27v-4.35h-5.27v4.35Z"/>
    <path class="cls-2" d="m111.09,98.24v5.58h4.56v-5.58h1.59v5.25c0,.63-.12,1.06-.35,1.28s-.69.34-1.35.34h-4.34c-.66,0-1.11-.11-1.35-.34s-.35-.66-.35-1.28v-5.25h1.6Z"/>
    <path class="cls-2" d="m120.76,105.12v-6.87h5.88c.55,0,.94.11,1.19.32.24.21.37.55.37,1.02v1.53c0,.46-.12.8-.37,1.01-.25.21-.64.32-1.19.32h-4.3v2.68h-1.57Zm5.17-5.68h-3.6v1.82h3.6c.28,0,.47-.04.57-.12.1-.08.15-.22.15-.43v-.73c0-.2-.05-.34-.15-.42-.1-.08-.29-.12-.57-.12Z"/>
  </g>
  <g>
    <path class="cls-4" d="m71.01,62.85l16.58-11.88,12.03-8.66-8.51,23.22h-.77c.15-1.98.07-3.96-.15-5.91-.22-2.16-.7-4.25-1.36-6.35-.07-.26-.37-.4-.62-.33l-.15.07c-1.83,1.21-3.67,2.64-5.47,3.96-.18.11-.26.29-.22.51.33,1.39.55,2.79.66,4.22.07,1.25.07,2.53-.04,3.81h-24.54c-.15-1.8-.11-3.56.11-5.32.26-1.91.7-3.78,1.36-5.65l.44-1.1.48-1.1c.29-.59.59-1.17.88-1.72.33-.59.66-1.17,1.03-1.72,1.03-1.61,2.27-3.15,3.67-4.62,1.28-1.32,2.71-2.6,4.29-3.81,1.17.88,2.27,1.8,3.26,2.79,1.14,1.06,2.13,2.16,3.04,3.3.15.22.44.26.66.11l5.17-3.7c.22-.18.26-.48.11-.7h0c-.95-1.25-2.02-2.42-3.15-3.59-.99-.99-2.05-1.94-3.19-2.9l.77-.88c.37-.44.7-.92.99-1.36.88-1.36,1.54-2.79,1.98-4.25.44-1.5.66-3.08.66-4.62s-.26-3.08-.7-4.55-1.1-2.9-1.98-4.22c-.7-1.06-1.54-2.05-2.49-3.01s-1.94-1.76-3.12-2.53l-1.72-1.14c-.18-.11-.4-.07-.55,0l-1.72,1.14c-1.17.77-2.2,1.61-3.12,2.53s-1.8,1.94-2.49,3.01c-.88,1.32-1.54,2.75-1.98,4.22s-.7,3.01-.7,4.55.18,3.12.66,4.62c.44,1.47,1.1,2.9,1.98,4.25l.18.29c.18.22.48.29.7.15l.04-.04c.55-.44,1.17-.92,1.8-1.36.59-.44,1.21-.88,1.87-1.28l.77-.55.7-.59c.18-.18.22-.44.11-.66-.51-.73-.88-1.54-1.14-2.35s-.37-1.65-.37-2.46c.04-.81.15-1.65.4-2.46s.62-1.58,1.14-2.35c.22-.37.51-.73.81-1.06.18-.26.4-.48.62-.7.26.22.48.44.66.7.29.33.59.7.81,1.06.51.77.88,1.54,1.14,2.35s.37,1.65.4,2.46c0,.84-.15,1.65-.37,2.49-.26.77-.62,1.58-1.14,2.31-.22.4-.51.77-.81,1.1-.29.37-.66.7-.99,1.03-.26.26-.55.48-.81.66-.29.22-.59.44-.88.62-.62.4-1.21.81-1.8,1.25-.55.4-1.14.84-1.69,1.28l-.04.04c-1.69,1.36-3.23,2.79-4.62,4.29-1.43,1.58-2.71,3.19-3.81,4.88-.48.77-.95,1.54-1.39,2.27-.4.81-.81,1.58-1.17,2.38-.18.29-.37.77-.51,1.1-1.06,2.49-1.8,5.06-2.24,7.7-.37,2.46-.51,4.92-.33,7.41h-.77l-8.51-23.22,9.57,6.9c.22.18.55.11.7-.11l.04-.07.26-.55c.4-.84.84-1.69,1.28-2.53.48-.81.99-1.65,1.5-2.46.15-.22.11-.51-.15-.66l-27.03-19.4c-.22-.18-.51-.11-.7.11-.07.11-.11.29-.04.44l17.83,48.57c.07.22.26.33.44.33h50.36c.22,0,.4-.15.44-.33l17.83-48.57c.11-.26-.04-.55-.29-.62-.15-.07-.33-.04-.48.07l-42.7,30.63-5.69-4.07c-.22-.18-.55-.11-.7.11v.04c-.33.48-.62.99-.92,1.5s-.55,1.03-.77,1.58c-.22.44-.44.92-.62,1.39s-.37.95-.51,1.43c-.07.22.04.44.22.59l8.73,6.24c.18.15.4.15.55,0Z"/>
    <rect class="cls-3" x="51.04" y="107.39" width="39.38" height="7.34"/>
  </g>
</svg>